<?xml version="1.0" encoding="utf-8"?>
<!-- Generator: Adobe Illustrator 24.1.2, SVG Export Plug-In . SVG Version: 6.00 Build 0)  -->
<svg version="1.1" id="Capa_1" xmlns="http://www.w3.org/2000/svg" xmlns:xlink="http://www.w3.org/1999/xlink" x="0px" y="0px"
	 viewBox="0 0 40 36" style="enable-background:new 0 0 40 36;" xml:space="preserve">
<path style="fill:#169154;" d="M25,0H11.7c-1,0-1.7,0.8-1.7,1.7V9h15V0z"/>
<path style="fill:#18482A;" d="M10,27.1v7.2c0,1,0.8,1.7,1.7,1.7H25v-8.9H10z"/>
<path style="fill:#0C8045;" d="M10,9h15v9H10V9z"/>
<path style="fill:#17472A;" d="M10,18h15v9.1H10V18z"/>
<g>
	<path style="fill:#29C27F;" d="M38.3,0H25v9h15V1.7C40,0.8,39.2,0,38.3,0z"/>
	<path style="fill:#27663F;" d="M25,27.1V36h13.3c1,0,1.7-0.8,1.7-1.7v-7.2L25,27.1L25,27.1z"/>
	<path style="fill:#19AC65;" d="M25,9h15v9H25V9z"/>
	<path style="fill:#129652;" d="M25,18h15v9.1H25V18z"/>
</g>
<path style="fill:#0C7238;" d="M18.3,28H1.7C0.8,28,0,27.2,0,26.3V9.7C0,8.8,0.8,8,1.7,8h16.6C19.2,8,20,8.8,20,9.7v16.6
	C20,27.2,19.2,28,18.3,28z"/>
<path style="fill:#FFFFFF;" d="M5.8,13h2.4l1.9,3.8l2-3.8h2.2l-3.1,5l3.1,5h-2.4L10,19.1L7.9,23H5.5l3.2-5L5.8,13z"/>
</svg>
