<?xml version="1.0" encoding="UTF-8"?>
<svg viewBox="0 0 606 498" version="1.1" xmlns="http://www.w3.org/2000/svg" xmlns:xlink="http://www.w3.org/1999/xlink">
    <!-- Generator: Sketch 61 (89581) - https://sketch.com -->
    <title>inicio</title>
    <desc>Created with Sketch.</desc>
    <defs>
        <linearGradient x1="42.7766803%" y1="40.4955087%" x2="91.6970388%" y2="104.83927%" id="linearGradient-1">
            <stop stop-color="#EEEEEE" offset="0%"></stop>
            <stop stop-color="#DCE3EA" offset="100%"></stop>
        </linearGradient>
        <linearGradient x1="57.8140625%" y1="54.3290116%" x2="19.3277853%" y2="33.0037184%" id="linearGradient-2">
            <stop stop-color="#A1C3FC" offset="0%"></stop>
            <stop stop-color="#81AEF2" offset="69.55%"></stop>
            <stop stop-color="#78A9EF" offset="100%"></stop>
        </linearGradient>
        <linearGradient x1="53.6683453%" y1="5.95407674%" x2="43.5434053%" y2="125.897002%" id="linearGradient-3">
            <stop stop-color="#A1C3FC" offset="0%"></stop>
            <stop stop-color="#81AEF2" offset="69.55%"></stop>
            <stop stop-color="#78A9EF" offset="100%"></stop>
        </linearGradient>
        <linearGradient x1="21.0381759%" y1="32.4195542%" x2="168.71855%" y2="91.244652%" id="linearGradient-4">
            <stop stop-color="#23286B" offset="0%"></stop>
            <stop stop-color="#151A4F" offset="100%"></stop>
        </linearGradient>
        <linearGradient x1="133.343964%" y1="46.2836154%" x2="-18.2176538%" y2="56.1618198%" id="linearGradient-5">
            <stop stop-color="#3E8AF8" offset="0%"></stop>
            <stop stop-color="#1479F2" offset="100%"></stop>
        </linearGradient>
        <linearGradient x1="64.8732058%" y1="65.9137805%" x2="44.0539857%" y2="40.2169919%" id="linearGradient-6">
            <stop stop-color="#23286B" offset="0%"></stop>
            <stop stop-color="#151A4F" offset="100%"></stop>
        </linearGradient>
        <linearGradient x1="0.00439430864%" y1="50.1161016%" x2="99.7024687%" y2="50.1161016%" id="linearGradient-7">
            <stop stop-color="#FFBEB6" offset="0%"></stop>
            <stop stop-color="#F2A19C" offset="100%"></stop>
        </linearGradient>
        <linearGradient x1="0.191304348%" y1="50.3097674%" x2="99.926087%" y2="50.3097674%" id="linearGradient-8">
            <stop stop-color="#FFBEB6" offset="0%"></stop>
            <stop stop-color="#F2A19C" offset="100%"></stop>
        </linearGradient>
        <linearGradient x1="44.9204211%" y1="37.3224418%" x2="59.2726312%" y2="103.368656%" id="linearGradient-9">
            <stop stop-color="#428DFC" offset="12.91%"></stop>
            <stop stop-color="#1D72D8" offset="99.87%"></stop>
        </linearGradient>
        <linearGradient x1="10.2113571%" y1="76.9113234%" x2="75.7381137%" y2="36.2854156%" id="linearGradient-10">
            <stop stop-color="#FFBEB6" offset="0%"></stop>
            <stop stop-color="#F2A19C" offset="100%"></stop>
        </linearGradient>
        <linearGradient x1="34.0242085%" y1="19.6571178%" x2="49.1955483%" y2="79.3474234%" id="linearGradient-11">
            <stop stop-color="#428DFC" offset="12.91%"></stop>
            <stop stop-color="#1D72D8" offset="99.87%"></stop>
        </linearGradient>
        <linearGradient x1="49.3551517%" y1="53.3460513%" x2="76.9259713%" y2="192.400604%" id="linearGradient-12">
            <stop stop-color="#428DFC" offset="12.91%"></stop>
            <stop stop-color="#1D72D8" offset="99.87%"></stop>
        </linearGradient>
        <linearGradient x1="19.8449951%" y1="197.852564%" x2="50.4693787%" y2="-4.28782051%" id="linearGradient-13">
            <stop stop-color="#FFBEB6" offset="0%"></stop>
            <stop stop-color="#F2A19C" offset="100%"></stop>
        </linearGradient>
        <linearGradient x1="101.200412%" y1="67.774822%" x2="-2.61273604%" y2="32.7362594%" id="linearGradient-14">
            <stop stop-color="#28306D" offset="0%"></stop>
            <stop stop-color="#1F275F" offset="51%"></stop>
            <stop stop-color="#171F51" offset="100%"></stop>
        </linearGradient>
    </defs>
    <g id="Page-1" stroke="none" stroke-width="1" fill="none" fill-rule="evenodd">
        <g id="inicio" fill-rule="nonzero">
            <g id="geometry">
                <rect id="monitor" fill="url(#linearGradient-1)" x="44.7" y="0.6" width="513.3" height="312.9"></rect>
                <rect id="_1" fill="#FFFFFF" x="101.4" y="55.6" width="51" height="51"></rect>
                <rect id="_2" fill="#FFFFFF" x="101.4" y="131.8" width="51" height="51"></rect>
                <path d="M71.4,449.3 L170.8,449.3 C184,449.3 194.7,460 194.7,473.2 L194.7,473.2 C194.7,486.4 184,497.1 170.8,497.1 L71.4,497.1 C58.2,497.1 47.5,486.4 47.5,473.2 L47.5,473.2 C47.5,460 58.2,449.3 71.4,449.3 Z" id="rounded_rect" fill="url(#linearGradient-2)"></path>
                <circle id="circle" fill="url(#linearGradient-3)" cx="564.1" cy="455.3" r="41.7"></circle>
                <path d="M0.6,415.8 C16.6,447.1 54.9,459.4 86.2,443.4 C114,429.2 127.3,396.9 117.7,367.2 L0.6,415.8 Z" id="half_a_circle" fill="url(#linearGradient-4)"></path>
            </g>
            <path d="M474.8,462.4 L487.2,497.1 L399.4,497.1 C399.4,497.1 403.9,488.4 418.9,482 C433.9,475.6 446.1,462.4 446.1,462.4 L474.8,462.4" id="R_shoe" fill="url(#linearGradient-5)"></path>
            <path d="M408.3,462.4 L420.7,497.1 L332.9,497.1 C332.9,497.1 337.4,488.4 352.4,482 C367.4,475.6 381.4,462.4 381.4,462.4 L408.3,462.4" id="L_shoe" fill="#428DFC"></path>
            <path d="M431.9,217.7 C431.9,217.7 435.4,225.8 428.8,260.2 L428.8,260.2 C430.4,278.3 433.9,296.1 439.4,313.3 C448.2,340.2 493.1,418.3 474.8,462.3 L446.1,462.3 C446.1,462.3 407.6,363.5 401.4,336.6 C395.2,309.7 381,230.4 373.5,216.3 L373.5,216.3 L431.9,217.7" id="R_trousers" fill="url(#linearGradient-6)"></path>
            <path d="M429.7,213.7 C429.7,213.7 439.8,231.8 424.4,273.7 C409,315.6 408.5,328.4 409.4,339.8 C410.3,351.2 418.7,364.5 416,388.7 C413.3,412.9 420.9,416.2 419.1,435.6 C417.3,455 408.3,462.4 408.3,462.4 L381.5,462.4 C381.5,462.4 363.1,362.3 361.8,331.4 C360.5,300.5 384.3,246 383.4,215.9 L383.4,215.9 L429.7,213.7 Z" id="L_trousers" fill="#23286B"></path>
            <path d="M422.7,254.1 C422.6,254 422.4,254 422.2,254.1 C422.2,254.1 422.2,254.1 422.2,254.1 C422.1,254.2 422.1,254.5 422.2,254.6 C422.3,254.7 422.6,254.7 422.7,254.6 C422.7,254.6 422.7,254.6 422.7,254.6 C422.9,254.5 422.9,254.3 422.7,254.1 Z M404.3,279.8 C404.1,279.8 404,280 404,280.2 C404,280.4 404.2,280.5 404.3,280.5 C404.3,280.5 404.3,280.5 404.3,280.5 C404.5,280.5 404.6,280.3 404.6,280.1 C404.6,279.9 404.5,279.8 404.3,279.8 L404.3,279.8 Z M403.7,271.7 C403.5,271.7 403.4,271.9 403.4,272.1 L403.4,272.1 C403.4,272.3 403.6,272.4 403.8,272.4 C404,272.4 404.1,272.2 404.1,272 L404.1,272 C404.1,271.9 403.9,271.7 403.7,271.7 Z M424.7,243 C424.5,242.9 424.4,243 424.3,243.2 C424.3,243.2 424.3,243.2 424.3,243.2 C424.2,243.4 424.3,243.6 424.5,243.6 C424.7,243.6 424.9,243.6 424.9,243.4 C424.9,243.4 424.9,243.4 424.9,243.4 C424.9,243.3 424.9,243.1 424.7,243 C424.7,243 424.7,243 424.7,243 Z M420.1,271.8 C420,271.6 419.8,271.6 419.6,271.6 C419.4,271.6 419.4,271.9 419.4,272.1 C419.5,272.3 419.7,272.3 419.9,272.3 C419.9,272.3 419.9,272.3 419.9,272.3 C420.1,272.1 420.2,271.9 420.1,271.8 Z M416.5,264.5 C416.4,264.3 416.2,264.3 416,264.3 C415.8,264.3 415.8,264.6 415.8,264.8 C415.8,265 416.1,265 416.3,265 C416.3,265 416.3,265 416.3,265 C416.5,264.9 416.6,264.7 416.5,264.5 Z M430.4,240.1 C430.2,240.1 430.1,240.2 430,240.3 C430,240.5 430.1,240.6 430.2,240.7 L430.2,240.7 C430.4,240.7 430.5,240.6 430.6,240.5 C430.7,240.2 430.6,240.1 430.4,240.1 Z M427,268.1 C426.9,268 426.7,267.9 426.6,268 C426.5,268.1 426.4,268.3 426.5,268.4 C426.5,268.4 426.5,268.4 426.5,268.4 C426.6,268.5 426.8,268.6 426.9,268.5 C427.1,268.4 427.1,268.2 427,268.1 Z M423.2,262 C423.1,261.9 422.9,261.8 422.8,261.9 C422.7,262 422.6,262.2 422.7,262.3 C422.8,262.4 423,262.5 423.1,262.4 L423.1,262.4 C423.3,262.3 423.3,262.1 423.2,262 C423.2,262 423.2,262 423.2,262 L423.2,262 Z M419.4,255.9 C419.4,255.8 419.3,255.8 419.3,255.8 L419.3,255.8 C419.2,255.8 419.1,255.8 419,255.8 C418.9,255.9 418.8,256.1 418.9,256.2 C418.9,256.2 418.9,256.2 418.9,256.2 C419,256.3 419.2,256.4 419.3,256.3 C419.4,256.3 419.4,256.2 419.4,256.1 C419.5,256 419.5,255.9 419.4,255.9 Z M397,272.9 C396.8,272.9 396.7,273 396.6,273.1 C396.6,273.1 396.6,273.1 396.6,273.1 C396.6,273.3 396.6,273.4 396.8,273.5 C396.8,273.5 396.8,273.5 396.8,273.5 C397,273.5 397.1,273.4 397.2,273.3 C397.2,273.1 397.1,273 397,272.9 Z M429.9,250.9 C429.8,250.8 429.6,250.8 429.5,251 C429.5,251 429.5,251 429.5,251 C429.4,251.1 429.4,251.3 429.5,251.4 C429.5,251.4 429.5,251.4 429.5,251.4 C429.6,251.5 429.8,251.5 429.9,251.3 C429.9,251.3 429.9,251.3 429.9,251.3 C430.1,251.1 430,251 429.9,250.9 Z M424,246.7 C423.9,246.6 423.7,246.6 423.6,246.8 C423.5,246.9 423.5,247.1 423.7,247.2 C423.8,247.3 424,247.2 424.1,247.1 C424.2,246.9 424.2,246.8 424,246.7 L424,246.7 Z M412.3,269.8 C412.1,269.8 412,270 412.1,270.2 C412.1,270.4 412.3,270.5 412.4,270.4 C412.6,270.4 412.7,270.2 412.7,270.1 C412.6,269.9 412.5,269.7 412.3,269.8 L412.3,269.8 Z M411.1,262.7 C410.9,262.7 410.8,262.9 410.9,263.1 C410.9,263.3 411.1,263.4 411.2,263.3 C411.4,263.3 411.5,263.1 411.4,263 C411.4,263 411.4,263 411.4,263 C411.4,262.8 411.3,262.6 411.1,262.7 Z M385.6,263.8 C385.5,263.7 385.3,263.7 385.2,263.9 C385.1,264 385.1,264.2 385.3,264.3 C385.3,264.3 385.3,264.3 385.3,264.3 C385.4,264.4 385.6,264.4 385.7,264.3 C385.7,264.3 385.7,264.3 385.7,264.3 C385.8,264.1 385.8,264 385.6,263.8 C385.6,263.9 385.6,263.9 385.6,263.8 L385.6,263.8 Z M426.5,250.4 C426.4,250.3 426.3,250.3 426.2,250.4 C426.1,250.5 426.1,250.6 426.2,250.7 C426.3,250.8 426.4,250.8 426.5,250.7 L426.5,250.7 C426.6,250.6 426.6,250.5 426.5,250.4 L426.5,250.4 Z M423.6,247.3 C423.5,247.2 423.4,247.2 423.3,247.3 C423.2,247.4 423.2,247.5 423.3,247.6 C423.4,247.7 423.5,247.7 423.6,247.6 L423.6,247.6 C423.7,247.5 423.7,247.4 423.6,247.3 L423.6,247.3 Z M429.8,241.8 C429.7,241.8 429.6,241.8 429.6,241.9 C429.6,241.9 429.6,241.9 429.6,241.9 C429.6,242 429.6,242.1 429.7,242.1 C429.8,242.1 429.9,242.1 429.9,242 C430,241.9 429.9,241.8 429.8,241.8 L429.8,241.8 Z M418.1,253.1 C418.1,253 418,253 417.9,253 C417.9,253 417.9,253 417.9,253 C417.8,253 417.8,253.1 417.8,253.2 C417.8,253.2 417.8,253.2 417.8,253.2 C417.8,253.3 417.9,253.3 418,253.3 C418.1,253.2 418.2,253.1 418.1,253.1 L418.1,253.1 Z M429.6,254.6 C429.5,254.5 429.4,254.5 429.3,254.5 C429.3,254.5 429.3,254.5 429.3,254.5 C429.2,254.6 429.2,254.7 429.2,254.8 C429.2,254.8 429.2,254.8 429.2,254.8 C429.3,254.9 429.4,254.9 429.5,254.9 C429.5,254.9 429.5,254.9 429.5,254.9 C429.6,254.8 429.6,254.7 429.6,254.6 L429.6,254.6 Z M427,250.5 C426.9,250.4 426.8,250.4 426.7,250.4 C426.7,250.4 426.7,250.4 426.7,250.4 C426.6,250.5 426.6,250.6 426.6,250.7 C426.7,250.8 426.8,250.8 426.9,250.8 C427,250.7 427,250.6 427,250.5 C427,250.5 427,250.5 427,250.5 L427,250.5 Z M424.4,246.4 C424.3,246.3 424.2,246.3 424.1,246.3 C424,246.3 424,246.5 424,246.6 C424,246.6 424,246.6 424,246.6 C424,246.6 424,246.6 424,246.6 C424.1,246.7 424.2,246.7 424.3,246.6 C424.4,246.6 424.4,246.5 424.4,246.4 L424.4,246.4 Z M431,242.9 C430.9,242.8 430.8,242.9 430.7,242.9 C430.6,243 430.7,243.1 430.7,243.2 C430.7,243.2 430.7,243.2 430.7,243.2 C430.8,243.3 430.9,243.2 431,243.2 C431.1,243.1 431.1,243 431,242.9 L431,242.9 Z M419.5,255.9 C419.5,255.8 419.4,255.7 419.3,255.7 C419.3,255.7 419.3,255.7 419.3,255.7 L419.3,255.7 C419.2,255.7 419.1,255.8 419.1,255.9 C419.1,256 419.2,256.1 419.3,256.1 C419.3,256.1 419.3,256.1 419.3,256.1 C419.3,256.1 419.4,256.1 419.4,256.1 C419.5,256.1 419.5,256 419.5,255.9 Z M418.4,251 C418.3,251 418.2,251.1 418.2,251.2 C418.2,251.3 418.3,251.4 418.4,251.4 C418.5,251.4 418.6,251.3 418.6,251.2 C418.6,251.2 418.6,251.2 418.6,251.2 C418.7,251 418.6,251 418.4,251 L418.4,251 Z M429.9,238.1 C429.7,238 429.5,238 429.4,238.2 C429.3,238.4 429.3,238.6 429.5,238.7 C429.7,238.8 429.9,238.8 430,238.6 C430.1,238.4 430.1,238.2 429.9,238.1 L429.9,238.1 Z M426.7,275.9 C426.5,275.9 426.4,276.1 426.4,276.3 C426.4,276.5 426.6,276.6 426.8,276.6 C427,276.6 427.1,276.4 427.1,276.2 C427.1,276 426.9,275.8 426.7,275.9 L426.7,275.9 Z M425.4,267.6 C425.2,267.6 425.1,267.8 425.1,268 C425.1,268.2 425.3,268.3 425.5,268.3 C425.7,268.3 425.8,268.1 425.8,267.9 C425.8,267.7 425.6,267.6 425.4,267.6 L425.4,267.6 Z M424.1,259.4 C423.9,259.4 423.8,259.6 423.8,259.8 C423.8,260 424,260.1 424.2,260.1 C424.2,260.1 424.2,260.1 424.2,260.1 C424.4,260.1 424.5,259.9 424.5,259.7 C424.5,259.5 424.3,259.4 424.1,259.4 L424.1,259.4 Z M422.8,251.2 C422.6,251.2 422.5,251.4 422.5,251.6 C422.5,251.6 422.5,251.6 422.5,251.6 C422.5,251.8 422.7,251.9 422.9,251.9 C423.1,251.9 423.2,251.7 423.2,251.5 C423.2,251.5 423.2,251.5 423.2,251.5 C423.2,251.3 423,251.2 422.8,251.2 C422.8,251.2 422.8,251.2 422.8,251.2 Z M392.5,267.8 C392.4,267.9 392.4,268.2 392.6,268.3 C392.6,268.3 392.6,268.3 392.6,268.3 C392.8,268.4 393,268.4 393.1,268.2 M429.1,245.2 C429,245 428.8,245 428.6,245.1 C428.6,245.1 428.6,245.1 428.6,245.1 C428.4,245.2 428.4,245.4 428.5,245.6 C428.6,245.8 428.8,245.8 429,245.7 C429.1,245.5 429.2,245.3 429.1,245.2 L429.1,245.2 Z M410.5,271.5 C410.3,271.5 410.1,271.6 410.1,271.7 C410.1,271.7 410.1,271.7 410.1,271.7 C410.1,271.9 410.2,272.1 410.3,272.1 C410.5,272.1 410.7,272 410.7,271.8 C410.8,271.7 410.7,271.5 410.5,271.5 L410.5,271.5 L410.5,271.5 Z M412.5,263.4 C412.3,263.4 412.1,263.5 412.1,263.6 C412.1,263.6 412.1,263.6 412.1,263.6 C412.1,263.8 412.2,264 412.3,264 L412.3,264 C412.5,264 412.7,263.9 412.7,263.7 L412.7,263.7 C412.8,263.6 412.7,263.4 412.5,263.4 C412.5,263.4 412.5,263.4 412.5,263.4 L412.5,263.4 Z M431.5,239.9 C431.4,239.7 431.2,239.7 431,239.8 C431,239.8 431,239.8 431,239.8 C430.8,239.9 430.8,240.1 430.9,240.3 C431,240.5 431.2,240.5 431.4,240.4 C431.5,240.3 431.6,240.1 431.5,239.9 C431.5,239.9 431.5,239.9 431.5,239.9 L431.5,239.9 Z M415.5,274.2 C415.3,274.2 415.1,274.3 415.1,274.5 C415.1,274.7 415.2,274.9 415.4,274.9 C415.6,274.9 415.8,274.8 415.8,274.6 C415.8,274.4 415.7,274.2 415.5,274.2 L415.5,274.2 Z M417.1,266 C416.9,266 416.7,266.1 416.7,266.3 C416.7,266.5 416.8,266.7 417,266.7 C417.2,266.7 417.4,266.6 417.4,266.4 C417.4,266.3 417.3,266.1 417.1,266 L417.1,266 Z M418.7,257.9 C418.5,257.9 418.3,258 418.3,258.2 C418.3,258.4 418.4,258.6 418.6,258.6 C418.6,258.6 418.6,258.6 418.6,258.6 C418.8,258.6 419,258.5 419,258.3 C419,258.1 418.9,258 418.7,257.9 L418.7,257.9 Z M420.3,249.8 C420.1,249.8 419.9,249.9 419.9,250.1 C419.9,250.1 419.9,250.1 419.9,250.1 C419.9,250.3 420,250.5 420.2,250.5 C420.4,250.5 420.6,250.4 420.6,250.3 C420.6,250.3 420.6,250.3 420.6,250.3 C420.6,250 420.5,249.8 420.3,249.8 C420.3,249.8 420.3,249.8 420.3,249.8 Z M429.4,253.4 C429.2,253.4 429.1,253.6 429.1,253.8 C429.1,254 429.3,254.1 429.5,254.1 C429.7,254.1 429.8,253.9 429.8,253.7 C429.8,253.7 429.8,253.7 429.8,253.7 C429.7,253.5 429.6,253.4 429.4,253.4 C429.4,253.4 429.4,253.4 429.4,253.4 Z M427.7,245.3 C427.5,245.3 427.4,245.5 427.4,245.7 C427.4,245.9 427.6,246 427.8,246 C428,246 428.1,245.8 428.1,245.6 C428.1,245.4 427.9,245.3 427.7,245.3 L427.7,245.3 Z M432.6,237.2 C432.6,237.1 432.4,237 432.3,237 C432.3,237 432.3,237 432.3,237 C432.2,237.1 432.1,237.2 432.2,237.3 C432.2,237.3 432.2,237.3 432.2,237.3 C432.3,237.4 432.4,237.5 432.5,237.4 C432.5,237.4 432.5,237.4 432.5,237.4 C432.6,237.5 432.7,237.4 432.6,237.2 C432.6,237.2 432.6,237.2 432.6,237.2 L432.6,237.2 Z M415.5,259.9 C415.4,259.8 415.2,259.9 415.2,260 C415.2,260 415.2,260 415.2,260 C415.1,260.1 415.2,260.3 415.3,260.3 C415.4,260.3 415.6,260.3 415.6,260.2 C415.7,260.1 415.6,260 415.5,259.9 Z M417.9,254.2 C417.8,254.1 417.6,254.2 417.6,254.3 C417.6,254.3 417.6,254.3 417.6,254.3 C417.5,254.4 417.6,254.6 417.7,254.6 C417.8,254.7 418,254.6 418,254.5 C418.1,254.4 418.1,254.3 417.9,254.2 L417.9,254.2 Z M420.4,248.5 C420.3,248.4 420.1,248.5 420.1,248.6 C420.1,248.7 420.1,248.9 420.2,248.9 C420.3,249 420.5,248.9 420.5,248.8 L420.5,248.8 C420.6,248.7 420.5,248.5 420.4,248.5 L420.4,248.5 Z M428.7,253.1 C428.6,253.1 428.5,253.2 428.4,253.3 C428.4,253.3 428.4,253.3 428.4,253.3 C428.4,253.4 428.5,253.6 428.6,253.6 C428.6,253.6 428.6,253.6 428.6,253.6 C428.7,253.6 428.9,253.5 428.9,253.3 C428.9,253.2 428.8,253.1 428.7,253.1 C428.7,253.1 428.7,253.1 428.7,253.1 L428.7,253.1 Z M428.8,246.9 C428.7,246.9 428.5,247 428.5,247.2 C428.5,247.3 428.6,247.4 428.7,247.5 C428.7,247.5 428.7,247.5 428.7,247.5 C428.8,247.5 429,247.4 429,247.3 C429,247.3 429,247.3 429,247.3 C429,247 428.9,246.9 428.8,246.9 C428.8,246.9 428.8,246.9 428.8,246.9 L428.8,246.9 Z M428.8,240.6 C428.7,240.6 428.5,240.7 428.5,240.9 L428.5,240.9 C428.5,241 428.6,241.2 428.7,241.2 C428.7,241.2 428.7,241.2 428.7,241.2 C428.8,241.2 429,241.1 429,241 C429,241 429,241 429,241 C429.1,240.8 429,240.7 428.8,240.6 L428.8,240.6 Z M430.3,245.7 C430.2,245.7 430.1,245.7 430.1,245.8 C430.1,245.9 430.1,246 430.2,246 C430.2,246 430.2,246 430.2,246 C430.3,246 430.4,246 430.4,245.9 C430.4,245.8 430.4,245.7 430.3,245.7 L430.3,245.7 Z M430.9,242.4 C430.8,242.4 430.8,242.4 430.7,242.5 C430.7,242.5 430.7,242.5 430.7,242.5 C430.7,242.6 430.7,242.6 430.8,242.7 C430.8,242.7 430.8,242.7 430.8,242.7 C430.9,242.7 430.9,242.7 431,242.6 C431,242.6 431,242.6 431,242.6 C431,242.5 431,242.4 430.9,242.4 L430.9,242.4 Z M431.5,239 C431.4,239 431.4,239 431.3,239.1 C431.3,239.1 431.3,239.1 431.3,239.1 C431.3,239.2 431.3,239.3 431.4,239.3 C431.5,239.3 431.5,239.3 431.6,239.2 C431.6,239.2 431.6,239.2 431.6,239.2 C431.6,239.1 431.6,239 431.5,239 C431.5,239 431.5,239 431.5,239 L431.5,239 Z M426.4,251.1 C426.3,251 426.2,251.1 426.1,251.2 C426.1,251.2 426.1,251.2 426.1,251.2 C426,251.3 426.1,251.4 426.1,251.5 C426.1,251.5 426.1,251.5 426.1,251.5 C426.2,251.6 426.4,251.5 426.4,251.4 L426.4,251.4 C426.5,251.3 426.5,251.1 426.4,251.1 C426.4,251.1 426.4,251.1 426.4,251.1 L426.4,251.1 Z M429.4,246.3 C429.3,246.2 429.1,246.3 429.1,246.4 C429,246.5 429.1,246.6 429.2,246.7 C429.2,246.7 429.2,246.7 429.2,246.7 C429.3,246.8 429.4,246.7 429.5,246.6 C429.5,246.6 429.5,246.6 429.5,246.6 C429.5,246.5 429.5,246.4 429.4,246.3 C429.4,246.3 429.4,246.3 429.4,246.3 L429.4,246.3 Z M432.4,241.5 C432.3,241.4 432.1,241.5 432.1,241.6 C432,241.7 432.1,241.8 432.2,241.9 C432.2,241.9 432.2,241.9 432.2,241.9 C432.3,242 432.5,241.9 432.5,241.8 C432.5,241.7 432.5,241.6 432.4,241.5 L432.4,241.5 Z" id="texture" fill="#FFFFFF" opacity="0.86"></path>
            <polygon id="Path" fill="#FF6666" points="419.4 352.9 405.9 357.9 227 172.3 240.4 167.3"></polygon>
            <polygon id="Path" fill="#FF6666" points="433.7 339.4 439.2 326.1 260.5 140.3 255 153.6"></polygon>
            <polygon id="Path" fill="#FF7B7B" points="240.4 167.3 419.4 352.9 433.7 339.4 255 153.6"></polygon>
            <path d="M288.2,235.9 C288.2,235.9 292,231.3 293.2,229.5 C294.4,227.7 296.1,231.1 295.1,233.5 C294.1,235.9 293.3,238.5 292.4,239.1 C292.4,239.1 301.7,231.1 304.9,229 C308.1,226.9 312,234.3 310.7,241 C309.4,247.7 307.3,252.6 305.3,253.4 C305.3,253.5 294.9,251 288.2,235.9 Z" id="R_hand" fill="url(#linearGradient-7)"></path>
            <path d="M355,225.1 C348,225.1 341.8,224.8 341.8,224.8 L332,214.6 C338.5,213.5 349.9,205.5 352.6,203.6 L355,225.1 Z" id="R_hand-2" fill="url(#linearGradient-8)"></path>
            <path d="M406.5,216 C399.1,217.5 394.6,219.8 383.3,229 C383,229.3 382.6,229.5 382.3,229.8 C370.2,239.7 356.1,235.1 356.1,235.1 L350.2,181.2 C350.2,181.2 353.3,181.5 367.3,178.7 C370.7,178.1 374.1,177.2 377.3,175.9 C383.3,173.3 385.6,168.7 387.5,157.3 C388.9,148.8 388.5,137.8 387.8,129.3 C391.9,129.2 395.8,127.5 398.8,124.7 C406.3,128.8 413.2,133.9 419.3,140 C425.6,153.6 428.2,166.5 429,181.2 C430.2,206.5 414.1,214.5 406.5,216 Z" id="L_hand" fill="url(#linearGradient-9)"></path>
            <path d="M383.6,256.2 C377.3,260 365.7,266.8 358.1,269.9 C347.2,274.3 340.4,275.6 322.7,275.4 C305,275.2 306.7,255 306.7,255 C311.7,260.3 317.9,260.7 320.5,261 C323.1,261.3 327.3,259.7 321,254.5 C314.7,249.3 318.4,244.6 318.9,245.9 C319.4,247.2 324.1,250.3 333.7,257.1 C343.3,263.9 334.5,264.1 346.7,258.1 C356.3,253.4 368.2,236.7 372.9,229.9 L383.6,256.2 Z" id="L_hand-2" fill="url(#linearGradient-10)"></path>
            <path d="M455.8,228.3 C450.3,229.4 445.2,230.4 440.4,231.1 C413.2,235.1 395,232.9 383.3,229.1 C378.7,227.7 374.3,225.7 370.2,223.1 C367.9,221.7 365.8,219.8 364.1,217.7 C370.5,205.4 374.6,190.4 377.3,176.2 C380.2,160.4 381.9,144.4 382.4,128.4 L383.9,129.2 C385.2,129.5 386.5,129.6 387.8,129.6 C391.9,129.5 395.8,127.8 398.8,125 C406.3,129.1 413.2,134.2 419.3,140.3 C422.9,143.8 426.3,147.6 429.3,151.6 C443.3,169.9 440.7,177.3 448.4,188.2 C448.4,188.2 448.4,188.2 448.4,188.3 C456.1,198.8 466.5,212 455.8,228.3 Z" id="sweater" fill="url(#linearGradient-11)"></path>
            <path d="M440.4,231 C439,232.1 437.6,233 436.1,233.8 C428.5,237.7 424.5,241.5 414.7,255.5 C404.9,269.5 388.7,268.8 388.7,268.8 L370.2,223 L366.5,213.9 C366.5,213.9 369.8,213.3 383.7,206.3 C397.6,199.3 400.6,195.8 398.7,177.8 C396.8,159.8 382.3,128.2 382.3,128.2 L383.8,129 C385.1,129.3 386.4,129.4 387.7,129.4 C391.8,129.3 395.7,127.6 398.7,124.8 C406.2,128.9 413.1,134 419.2,140.1 C422.8,143.6 426.2,147.4 429.2,151.4 C443.2,169.7 440.6,177.1 448.3,188 C448.3,188 448.3,188 448.3,188.1 C448.6,189 448.9,189.9 449.2,190.8 C456.7,212.3 447.9,225 440.4,231 Z" id="L_sleeve" fill="url(#linearGradient-12)"></path>
            <path d="M393.6,113.8 C393.2,115.8 392.7,117.9 392,119.8 C390.9,123.1 389.4,126.3 387.7,129.4 C386.4,129.4 385.1,129.3 383.9,129 L382.4,128.3 C382.4,128.3 382.4,128.3 382.4,128.3 C382.6,123.5 382.6,118.7 382.2,113.8 C382.8,113.9 383.4,113.9 384,114 C387.2,114.2 390.4,114.2 393.6,113.8 Z" id="neck" fill="url(#linearGradient-13)"></path>
            <path d="M393.6,113.8 C387.6,114.6 375.2,114.4 371.3,108.9 C366.7,102.2 368.3,95.9 367,95.3 C365.7,94.7 363.2,92.9 363.7,91.4 C364.2,90 369.2,87.2 371.6,82.3 C371.8,81.8 372,81.4 372.3,81 L372.3,81 C372.3,80.9 372.4,80.8 372.5,80.7 C372.5,80.6 372.6,80.6 372.6,80.6 C372.6,80.6 372.6,80.6 372.6,80.5 C372.6,80.4 372.7,80.4 372.7,80.3 C373,79.8 373.5,79.1 374.1,78.3 C374.4,77.9 374.7,77.5 375.1,77.1 C375.5,76.6 376,76.1 376.5,75.7 C376.5,75.7 376.6,75.6 376.6,75.6 C376.7,75.5 376.8,75.4 377,75.2 C377.2,75 377.5,74.8 377.7,74.6 C377.9,74.4 378.1,74.3 378.3,74.2 C378.4,74.1 378.5,74.1 378.6,74 C378.8,73.9 379,73.7 379.2,73.6 C379.2,73.6 379.3,73.5 379.3,73.5 C379.3,73.5 379.3,73.5 379.3,73.5 C379.2,73.9 379.1,74.4 379,74.8 C379,74.9 379,75.1 378.9,75.3 C378.8,75.9 378.8,76.5 378.9,77.1 C378.9,77.2 378.9,77.3 378.9,77.4 C378.9,77.5 378.9,77.6 378.9,77.7 C378.9,77.9 378.9,78.1 379,78.4 C379,78.4 379,78.5 379,78.5 C379,78.8 379.1,79.2 379.2,79.5 C379.2,79.6 379.3,79.7 379.3,79.9 C379.3,79.9 379.3,79.9 379.3,79.9 C379.4,80.1 379.4,80.4 379.5,80.7 L379.5,80.7 C379.5,80.8 379.6,81 379.6,81.1 C379.8,81.7 380,82.3 380.3,82.8 C380.4,83 380.5,83.2 380.6,83.4 C380.6,83.5 380.7,83.6 380.8,83.7 C380.8,83.8 380.9,83.9 381,84 C381,84.1 381.1,84.1 381.1,84.2 C381.2,84.4 381.3,84.5 381.4,84.7 C381.5,84.9 381.6,85 381.7,85.2 C381.8,85.4 381.9,85.5 382,85.7 C382.3,86.1 382.6,86.5 383,87 C383.2,87.2 383.4,87.5 383.6,87.7 C384.4,88.6 385.2,89.5 386.1,90.3 L386.7,90.8 C388.5,92.4 390,94.3 391.3,96.3 C391.5,96.6 391.6,97 391.8,97.3 C392.3,98.3 392.7,99.2 393,100.3 C394.3,104.6 394.6,109.3 393.6,113.8 Z" id="face" fill="#FFBEB6"></path>
            <path d="M366.1,87.7 C366.3,87.7 366.6,87.7 366.8,87.6 C368.4,87.2 369.6,85.9 370,84.3 C371.3,84.5 372.2,85.7 372.9,86.8 C372.4,87.7 372.2,88.8 372.2,89.8 C372.2,91.3 372.6,92.8 373.5,94 C374.3,95.1 375.5,95.8 376.9,95.8 C377.2,95.8 377.4,95.8 377.7,95.7 C378.7,95.5 379.6,94.9 380.3,94.1 C381.2,92.9 381.7,91.5 381.7,90 C381.7,86.7 379.6,84.1 377,84 C375.7,84 374.4,84.7 373.6,85.7 C373.5,85.8 373.4,86 373.3,86.1 C372.6,84.9 371.5,84 370.1,83.6 C370.2,83.3 370.2,83 370.2,82.6 C370.2,79.8 368.4,77.5 366.2,77.5 L366.2,77.5 C363.9,77.5 362.1,79.7 362,82.6 C362,85.3 363.8,87.6 366.1,87.7 Z M372.9,89.8 C372.9,88.5 373.3,87.2 374.1,86.1 C374.6,85.4 375.4,84.9 376.3,84.7 C376.5,84.7 376.7,84.6 377,84.6 C379.2,84.6 381,87 380.9,89.8 C380.9,91.1 380.5,92.4 379.7,93.5 C378.6,95 376.5,95.4 375,94.3 C374.7,94.1 374.4,93.7 374.1,93.4 C373.3,92.5 372.9,91.2 372.9,89.8 Z M362.8,82.5 C362.8,80.1 364.4,78.2 366.2,78.2 C368.1,78.2 369.5,80.2 369.5,82.6 C369.5,85 367.9,86.9 366.1,86.9 C364.2,86.9 362.7,84.9 362.8,82.5 Z" id="eyeglasses" fill="url(#linearGradient-14)"></path>
            <path d="M435.7,120.3 C433.1,114.8 427.8,110.9 425.2,105.6 C424.1,102.5 423.7,99.2 424,95.9 C424.5,85.8 421,80.1 419.8,78.5 C419.8,78.5 419.8,78.4 419.7,78.4 C416.8,73.3 412,69.5 406.4,67.8 C393.4,63.8 376,63 372.2,81 C373.9,78 376.3,75.4 379.2,73.4 C379.1,73.7 376.5,80.6 385,89.2 C386.5,91.7 388.2,94.3 389.5,96.9 C395.4,108.8 390.6,121.5 381,129.8 C380.6,130.1 381.2,130.6 381.5,130.3 C389,123.8 394.2,114.5 392.7,104.3 C392,99.5 389.5,95.3 387,91.2 C388.6,92.7 389.9,94.4 391.1,96.2 C391.3,96.5 391.4,96.9 391.6,97.2 C392.1,98.2 392.5,99.1 392.8,100.2 C395,106.8 393.8,114 391.8,119.9 C390.3,124.4 388.2,128.7 385.6,132.7 C413.5,141.3 433.4,137.2 433.4,137.2 C436,131.3 436,124.5 433.3,118.5 C436.8,123.9 437.5,130.5 435.4,136.5 C435.2,137 436,137.2 436.1,136.7 C438.3,131.3 438,125.5 435.7,120.3 Z" id="hair" fill="#23286B"></path>
            <polyline id="top_of_pencil" fill="#FFFFFF" points="227 172.3 197.8 111.1 260.5 140.3 255 153.6 240.4 167.3 227 172.3"></polyline>
        </g>
    </g>
</svg>
