<?xml version="1.0" encoding="utf-8"?>
<!-- Generator: Adobe Illustrator 24.1.2, SVG Export Plug-In . SVG Version: 6.00 Build 0)  -->
<svg version="1.1" id="Capa_1" xmlns="http://www.w3.org/2000/svg" xmlns:xlink="http://www.w3.org/1999/xlink" x="0px" y="0px"
	 viewBox="0 0 48 64" style="enable-background:new 0 0 48 64;" xml:space="preserve">
<g id="Multicolor">
	<g>
		<g>
			<path style="fill:#FA5655;" d="M0,3.8C0,1.7,1.7,0,3.8,0H32l16,13.4v46.7c0,2.1-1.7,3.8-3.8,3.8H3.8C1.7,64,0,62.3,0,60.2V3.8z"
				/>
		</g>
		<g>
			<path style="fill:#DF2C2C;" d="M32,0v9.6c0,2.1,1.7,3.8,3.8,3.8H48"/>
		</g>
		<g>
			<path style="fill:#FFFFFF;" d="M12,40.6h-1.5v4.6H7.2V31.3h4.4c3.8,0,5.9,1.5,5.9,4.5C17.5,39.1,15.3,40.6,12,40.6z M11.6,33.7
				h-1.1v4.5h1.2c1.5,0,2.4-0.7,2.4-2.3C14.1,34.4,13.3,33.7,11.6,33.7z"/>
			<path style="fill:#FFFFFF;" d="M22.8,45.2H19V31.3h3.5c3.6,0,7,1.1,7,6.9C29.5,43.8,26.2,45.2,22.8,45.2z M23,33.7h-0.7v9.1H23
				c1.8,0,3-1,3-4.6C26.1,34.5,24.8,33.7,23,33.7z"/>
			<path style="fill:#FFFFFF;" d="M35.3,33.7v3.6h4.8v2.4h-4.8v5.5H32V31.3h9.1l-0.3,2.4C40.7,33.7,35.3,33.7,35.3,33.7z"/>
		</g>
	</g>
</g>
</svg>
