<?xml version="1.0" encoding="utf-8"?>
<!-- Generator: Adobe Illustrator 24.1.2, SVG Export Plug-In . SVG Version: 6.00 Build 0)  -->
<svg version="1.1" id="Capa_1" xmlns="http://www.w3.org/2000/svg" xmlns:xlink="http://www.w3.org/1999/xlink" x="0px" y="0px"
	 viewBox="0 0 36 36" style="enable-background:new 0 0 36 36;" xml:space="preserve">
<path style="fill:#FF8A65;" d="M35,4H19v28h16c0.6,0,1-0.4,1-1V5C36,4.4,35.6,4,35,4z"/>
<path style="fill:#FBE9E7;" d="M18,23h14v2H18V23z M18,27h14v2H18V27z M24,9c-3.3,0-6,2.7-6,6s2.7,6,6,6s6-2.7,6-6h-6V9z"/>
<path style="fill:#FBE9E7;" d="M26,7v6h6C32,9.7,29.3,7,26,7z"/>
<path style="fill:#E64A19;" d="M21,36L0,32V4l21-4V36z"/>
<path style="fill:#FFFFFF;" d="M10.8,11H6v14h3v-4.8h1.6c1.7,0,3-0.4,4-1.3s1.5-2,1.5-3.4C16,12.5,14.3,11,10.8,11z M10.3,17.8H9
	v-4.4h1.3c1.6,0,2.5,0.7,2.5,2.2S11.9,17.8,10.3,17.8z"/>
</svg>
