<?xml version="1.0" encoding="utf-8"?>
<!-- Generator: Adobe Illustrator 24.1.2, SVG Export Plug-In . SVG Version: 6.00 Build 0)  -->
<svg version="1.1" id="Capa_1" xmlns="http://www.w3.org/2000/svg" xmlns:xlink="http://www.w3.org/1999/xlink" x="0px" y="0px"
	 viewBox="0 0 48 64" style="enable-background:new 0 0 48 64;" xml:space="preserve">
<g id="Multicolor">
	<g>
		<g>
			<path style="fill:#F7BA00;" d="M0,3.8C0,1.7,1.7,0,3.8,0H32l16,13.4v46.7c0,2.1-1.7,3.8-3.8,3.8H3.8C1.7,64,0,62.3,0,60.2V3.8z"
				/>
		</g>
		<g>
			<path style="fill:#FF9638;" d="M32,0v9.6c0,2.1,1.7,3.8,3.8,3.8H48"/>
		</g>
		<g>
			<path style="fill:#FFFFFF;" d="M14.5,39.3l3.6,5.8h-3.7l-3-5.3h-0.9v5.3H7.1V31.3h4.4c3.8,0,5.7,1.3,5.7,4.2
				C17.2,37.5,16,38.7,14.5,39.3z M11.5,33.6h-1.1v4h1.2c1.4,0,2.2-0.6,2.2-2.1C13.8,34.2,13,33.6,11.5,33.6z"/>
			<path style="fill:#FFFFFF;" d="M26,42.2h-4l-0.7,3h-3.5L22,31.3h4l4.2,13.9h-3.6L26,42.2z M22.5,39.8h3L24,33.9h-0.1L22.5,39.8z"
				/>
			<path style="fill:#FFFFFF;" d="M38.5,39.3l3.6,5.8h-3.7l-3-5.3h-0.9v5.3h-3.3V31.3h4.4c3.8,0,5.7,1.3,5.7,4.2
				C41.2,37.5,40,38.7,38.5,39.3z M35.5,33.6h-1.1v4h1.2c1.4,0,2.2-0.6,2.2-2.1C37.8,34.2,37,33.6,35.5,33.6z"/>
		</g>
	</g>
</g>
</svg>
