<?xml version="1.0" encoding="utf-8"?>
<!-- Generator: Adobe Illustrator 24.1.2, SVG Export Plug-In . SVG Version: 6.00 Build 0)  -->
<svg version="1.1" id="Capa_1" xmlns="http://www.w3.org/2000/svg" xmlns:xlink="http://www.w3.org/1999/xlink" x="0px" y="0px"
	 viewBox="0 0 40 36" style="enable-background:new 0 0 40 36;" xml:space="preserve">
<path style="fill:#2D92D4;" d="M38.3,0H11.7c-1,0-1.7,0.8-1.7,1.7V9h30V1.7C40,0.8,39.2,0,38.3,0z"/>
<path style="fill:#2150A9;" d="M10,27.1v7.2c0,1,0.8,1.7,1.7,1.7h26.5c1,0,1.7-0.8,1.7-1.7v-7.2C39.9,27.1,10,27.1,10,27.1z"/>
<path style="fill:#2D83D4;" d="M10,9h30v9H10V9z"/>
<path style="fill:#2E70C9;" d="M10,18h30v9.1H10V18z"/>
<path style="fill:#00488D;" d="M18.3,28H1.7C0.8,28,0,27.2,0,26.3V9.7C0,8.8,0.8,8,1.7,8h16.6C19.2,8,20,8.8,20,9.7v16.6
	C20,27.2,19.2,28,18.3,28z"/>
<path style="fill:#FFFFFF;" d="M14.4,13l-1.5,7.3L11.1,13H9l-1.8,7.5L5.6,13h-2L6,23h2.4l1.7-7.7l1.7,7.7H14l2.3-10H14.4z"/>
</svg>
