<?xml version="1.0" encoding="utf-8"?>
<!-- Generator: Adobe Illustrator 24.1.2, SVG Export Plug-In . SVG Version: 6.00 Build 0)  -->
<svg version="1.1" id="Capa_1" xmlns="http://www.w3.org/2000/svg" xmlns:xlink="http://www.w3.org/1999/xlink" x="0px" y="0px"
	 viewBox="0 0 48 64" style="enable-background:new 0 0 48 64;" xml:space="preserve">
<g id="Multicolor">
	<g>
		<g>
			<g>
				<path style="fill:#21B2D1;" d="M0,3.8C0,1.7,1.7,0,3.8,0H32l16,13.4v46.7c0,2.1-1.7,3.8-3.8,3.8H3.8C1.7,64,0,62.3,0,60.2V3.8z"
					/>
			</g>
			<g>
				<path style="fill:#059BBF;" d="M32,0v9.6c0,2.1,1.7,3.8,3.8,3.8H48"/>
			</g>
		</g>
		<g>
			<path style="fill:#FFFFFF;" d="M10.7,42.5h6.4l-0.3,2.6h-10v-2.5l6.5-8.8H7.4v-2.6H17v2.5L10.7,42.5z"/>
			<path style="fill:#FFFFFF;" d="M19.5,31.3h9v2.4h-2.9v9h2.9v2.4h-9v-2.4h2.9v-9h-2.9V31.3z"/>
			<path style="fill:#FFFFFF;" d="M36,40.6h-1.5v4.6h-3.3V31.3h4.4c3.8,0,5.9,1.5,5.9,4.5C41.5,39.1,39.3,40.6,36,40.6z M35.6,33.7
				h-1.1v4.5h1.2c1.5,0,2.4-0.7,2.4-2.3C38.1,34.4,37.3,33.7,35.6,33.7z"/>
		</g>
	</g>
</g>
</svg>
