<?xml version="1.0" encoding="UTF-8"?>
<svg width="27px" height="19px" viewBox="0 0 27 19" version="1.1" xmlns="http://www.w3.org/2000/svg" xmlns:xlink="http://www.w3.org/1999/xlink">
    <!-- Generator: Sketch 61 (89581) - https://sketch.com -->
    <title>swap_horiz-24px</title>
    <desc>Created with Sketch.</desc>
    <g id="Reportes" stroke="none" stroke-width="1" fill="none" fill-rule="evenodd">
        <g id="swap_horiz-24px" fill="#FFFFFF" fill-rule="nonzero">
            <path d="M4.95416667,9.29583333 L0.9,13.3645833 C0.622916667,13.65625 0.622916667,14.1083333 0.9,14.4 L4.95416667,18.46875 C5.40625,18.9354167 6.19375,18.6 6.19375,17.9583333 L6.19375,15.3333333 L14.9583333,15.3333333 C15.7604167,15.3333333 16.4166667,14.6770833 16.4166667,13.875 C16.4166667,13.0729167 15.7604167,12.4166667 14.9583333,12.4166667 L6.19375,12.4166667 L6.19375,9.80625 C6.19375,9.15 5.40625,8.82916667 4.95416667,9.29583333 L4.95416667,9.29583333 Z M26.1145833,4.61458333 L22.0604167,0.545833333 C21.6083333,0.0791666667 20.8208333,0.414583333 20.8208333,1.05625 L20.8208333,3.66666667 L12.0416667,3.66666667 C11.2395833,3.66666667 10.5833333,4.32291667 10.5833333,5.125 C10.5833333,5.92708333 11.2395833,6.58333333 12.0416667,6.58333333 L20.80625,6.58333333 L20.80625,9.19375 C20.80625,9.85 21.59375,10.1708333 22.0458333,9.70416667 L26.1,5.63541667 C26.3916667,5.35833333 26.3916667,4.89166667 26.1145833,4.61458333 L26.1145833,4.61458333 Z" id="Shape"></path>
        </g>
    </g>
</svg>