<?xml version="1.0" encoding="UTF-8"?>
<svg width="14px" height="14px" viewBox="0 0 14 14" version="1.1" xmlns="http://www.w3.org/2000/svg" xmlns:xlink="http://www.w3.org/1999/xlink">
    <!-- Generator: Sketch 61 (89581) - https://sketch.com -->
    <title>bar_chart-24px</title>
    <desc>Created with Sketch.</desc>
    <defs>
        <rect id="path-1" x="141" y="326" width="1099" height="359" rx="4"></rect>
        <filter x="-0.9%" y="-2.2%" width="101.8%" height="105.6%" filterUnits="objectBoundingBox" id="filter-2">
            <feOffset dx="0" dy="2" in="SourceAlpha" result="shadowOffsetOuter1"></feOffset>
            <feGaussianBlur stdDeviation="3" in="shadowOffsetOuter1" result="shadowBlurOuter1"></feGaussianBlur>
            <feColorMatrix values="0 0 0 0 0   0 0 0 0 0   0 0 0 0 0  0 0 0 0.3 0" type="matrix" in="shadowBlurOuter1"></feColorMatrix>
        </filter>
    </defs>
    <g id="Reportes" stroke="none" stroke-width="1" fill="none" fill-rule="evenodd">
        <g id="Reportería_R3_04" transform="translate(-1093.000000, -392.000000)">
            <g id="Rectangle" transform="translate(690.500000, 505.500000) scale(1, -1) rotate(180.000000) translate(-690.500000, -505.500000) ">
                <use fill="black" fill-opacity="1" filter="url(#filter-2)" xlink:href="#path-1"></use>
                <use fill="#FFFFFF" fill-rule="evenodd" xlink:href="#path-1"></use>
            </g>
            <g id="Group-2" transform="translate(1040.000000, 387.000000)">
                <g id="bar_chart-24px" transform="translate(48.000000, 0.000000)">
                    <polygon id="Path" points="0 0 24 0 24 24 0 24"></polygon>
                    <path d="M6.4,9.2 L6.6,9.2 C7.37,9.2 8,9.83 8,10.6 L8,17.6 C8,18.37 7.37,19 6.6,19 L6.4,19 C5.63,19 5,18.37 5,17.6 L5,10.6 C5,9.83 5.63,9.2 6.4,9.2 Z M12,5 C12.77,5 13.4,5.63 13.4,6.4 L13.4,17.6 C13.4,18.37 12.77,19 12,19 C11.23,19 10.6,18.37 10.6,17.6 L10.6,6.4 C10.6,5.63 11.23,5 12,5 Z M17.6,13 C18.37,13 19,13.63 19,14.4 L19,17.6 C19,18.37 18.37,19 17.6,19 C16.83,19 16.2,18.37 16.2,17.6 L16.2,14.4 C16.2,13.63 16.83,13 17.6,13 L17.6,13 Z" id="Shape" fill="#0083E9" fill-rule="nonzero"></path>
                </g>
            </g>
        </g>
    </g>
</svg>