<?xml version="1.0" encoding="UTF-8"?>
<svg width="23px" height="23px" viewBox="0 0 23 23" version="1.1" xmlns="http://www.w3.org/2000/svg" xmlns:xlink="http://www.w3.org/1999/xlink">
    <!-- Generator: Sketch 61 (89581) - https://sketch.com -->
    <title>assessment-24px (2)</title>
    <desc>Created with Sketch.</desc>
    <defs>
        <rect id="path-1" x="0" y="0" width="440" height="70" rx="8"></rect>
        <filter x="-2.4%" y="-10.7%" width="104.8%" height="130.0%" filterUnits="objectBoundingBox" id="filter-2">
            <feOffset dx="0" dy="3" in="SourceAlpha" result="shadowOffsetOuter1"></feOffset>
            <feGaussianBlur stdDeviation="3" in="shadowOffsetOuter1" result="shadowBlurOuter1"></feGaussianBlur>
            <feColorMatrix values="0 0 0 0 0   0 0 0 0 0   0 0 0 0 0  0 0 0 0.14920236 0" type="matrix" in="shadowBlurOuter1"></feColorMatrix>
        </filter>
        <linearGradient x1="50%" y1="0%" x2="50%" y2="100%" id="linearGradient-3">
            <stop stop-color="#279DFA" offset="0%"></stop>
            <stop stop-color="#0083E9" offset="100%"></stop>
        </linearGradient>
    </defs>
    <g id="Reportes" stroke="none" stroke-width="1" fill="none" fill-rule="evenodd">
        <g id="Reportería_R0_01" transform="translate(-253.000000, -216.000000)">
            <g id="Group-12" transform="translate(224.000000, 193.000000)">
                <g id="Group-3">
                    <g id="Rectangle-Copy-12" transform="translate(220.000000, 35.000000) rotate(-360.000000) translate(-220.000000, -35.000000) ">
                        <use fill="black" fill-opacity="1" filter="url(#filter-2)" xlink:href="#path-1"></use>
                        <use fill="#FFFFFF" fill-rule="evenodd" xlink:href="#path-1"></use>
                    </g>
                    <g id="assessment-24px-(2)" transform="translate(25.000000, 20.000000)">
                        <polygon id="Path" points="0 0 30 0 30 30 0 30"></polygon>
                        <path d="M24.4444444,3 L6.55555556,3 C5.15,3 4,4.15 4,5.55555556 L4,23.4444444 C4,24.85 5.15,26 6.55555556,26 L24.4444444,26 C25.85,26 27,24.85 27,23.4444444 L27,5.55555556 C27,4.15 25.85,3 24.4444444,3 Z M10.3888889,20.8888889 C9.68611111,20.8888889 9.11111111,20.3138889 9.11111111,19.6111111 L9.11111111,13.2222222 C9.11111111,12.5194444 9.68611111,11.9444444 10.3888889,11.9444444 C11.0916667,11.9444444 11.6666667,12.5194444 11.6666667,13.2222222 L11.6666667,19.6111111 C11.6666667,20.3138889 11.0916667,20.8888889 10.3888889,20.8888889 Z M15.5,20.8888889 C14.7972222,20.8888889 14.2222222,20.3138889 14.2222222,19.6111111 L14.2222222,9.38888889 C14.2222222,8.68611111 14.7972222,8.11111111 15.5,8.11111111 C16.2027778,8.11111111 16.7777778,8.68611111 16.7777778,9.38888889 L16.7777778,19.6111111 C16.7777778,20.3138889 16.2027778,20.8888889 15.5,20.8888889 Z M20.6111111,20.8888889 C19.9083333,20.8888889 19.3333333,20.3138889 19.3333333,19.6111111 L19.3333333,17.0555556 C19.3333333,16.3527778 19.9083333,15.7777778 20.6111111,15.7777778 C21.3138889,15.7777778 21.8888889,16.3527778 21.8888889,17.0555556 L21.8888889,19.6111111 C21.8888889,20.3138889 21.3138889,20.8888889 20.6111111,20.8888889 Z" id="Shape" fill="url(#linearGradient-3)" fill-rule="nonzero"></path>
                    </g>
                </g>
            </g>
        </g>
    </g>
</svg>