<?xml version="1.0" encoding="UTF-8"?>
<svg width="32px" height="41px" viewBox="0 0 32 41" version="1.1" xmlns="http://www.w3.org/2000/svg" xmlns:xlink="http://www.w3.org/1999/xlink">
    <!-- Generator: Sketch 61 (89581) - https://sketch.com -->
    <title>description-24px (1)</title>
    <desc>Created with Sketch.</desc>
    <defs>
        <rect id="path-1" x="141" y="362" width="1099" height="111" rx="4"></rect>
        <filter x="-0.9%" y="-7.2%" width="101.8%" height="118.0%" filterUnits="objectBoundingBox" id="filter-2">
            <feOffset dx="0" dy="2" in="SourceAlpha" result="shadowOffsetOuter1"></feOffset>
            <feGaussianBlur stdDeviation="3" in="shadowOffsetOuter1" result="shadowBlurOuter1"></feGaussianBlur>
            <feColorMatrix values="0 0 0 0 0   0 0 0 0 0   0 0 0 0 0  0 0 0 0.3 0" type="matrix" in="shadowBlurOuter1"></feColorMatrix>
        </filter>
        <linearGradient x1="50%" y1="0%" x2="50%" y2="100%" id="linearGradient-3">
            <stop stop-color="#279DFA" offset="0%"></stop>
            <stop stop-color="#0083E9" offset="100%"></stop>
        </linearGradient>
    </defs>
    <g id="Reportes" stroke="none" stroke-width="1" fill="none" fill-rule="evenodd">
        <g id="Reportería_R2_05" transform="translate(-641.000000, -395.000000)">
            <g id="Rectangle" transform="translate(690.500000, 417.500000) scale(1, -1) rotate(180.000000) translate(-690.500000, -417.500000) ">
                <use fill="black" fill-opacity="1" filter="url(#filter-2)" xlink:href="#path-1"></use>
                <use fill="#FFFFFF" fill-rule="evenodd" xlink:href="#path-1"></use>
            </g>
            <g id="Group-5" transform="translate(401.000000, 392.000000)">
                <g id="Group-2" transform="translate(232.000000, 0.000000)">
                    <g id="description-24px-(1)">
                        <polygon id="Path" points="0 0 48 0 48 47 0 47"></polygon>
                        <path d="M29.18,5.07208333 C28.42,4.32791667 27.4,3.91666667 26.34,3.91666667 L12,3.91666667 C9.8,3.91666667 8,5.67916667 8,7.83333333 L8,39.1666667 C8,41.3208333 9.78,43.0833333 11.98,43.0833333 L36,43.0833333 C38.2,43.0833333 40,41.3208333 40,39.1666667 L40,17.2920833 C40,16.2541667 39.58,15.2554167 38.82,14.5308333 L29.18,5.07208333 Z M30,35.25 L18,35.25 C16.9,35.25 16,34.36875 16,33.2916667 C16,32.2145833 16.9,31.3333333 18,31.3333333 L30,31.3333333 C31.1,31.3333333 32,32.2145833 32,33.2916667 C32,34.36875 31.1,35.25 30,35.25 Z M30,27.4166667 L18,27.4166667 C16.9,27.4166667 16,26.5354167 16,25.4583333 C16,24.38125 16.9,23.5 18,23.5 L30,23.5 C31.1,23.5 32,24.38125 32,25.4583333 C32,26.5354167 31.1,27.4166667 30,27.4166667 Z M26,15.6666667 L26,6.85416667 L37,17.625 L28,17.625 C26.9,17.625 26,16.74375 26,15.6666667 Z" id="Shape" fill="url(#linearGradient-3)" fill-rule="nonzero"></path>
                    </g>
                </g>
            </g>
        </g>
    </g>
</svg>