<?xml version="1.0" encoding="UTF-8"?>
<svg width="25px" height="31px" viewBox="0 0 25 31" version="1.1" xmlns="http://www.w3.org/2000/svg" xmlns:xlink="http://www.w3.org/1999/xlink">
    <!-- Generator: Sketch 61 (89581) - https://sketch.com -->
    <title>Shape</title>
    <desc>Created with Sketch.</desc>
    <g id="Reportes" stroke="none" stroke-width="1" fill="none" fill-rule="evenodd">
        <g id="Ãcono_Encuestas" fill="#FFFFFF" fill-rule="nonzero">
            <path d="M16.2770833,1.77708333 C15.7229167,1.22291667 14.9791667,0.916666667 14.20625,0.916666667 L3.75,0.916666667 C2.14583333,0.916666667 0.833333333,2.22916667 0.833333333,3.83333333 L0.833333333,27.1666667 C0.833333333,28.7708333 2.13125,30.0833333 3.73541667,30.0833333 L21.25,30.0833333 C22.8541667,30.0833333 24.1666667,28.7708333 24.1666667,27.1666667 L24.1666667,10.8770833 C24.1666667,10.1041667 23.8604167,9.36041667 23.30625,8.82083333 L16.2770833,1.77708333 Z M16.875,24.25 L8.125,24.25 C7.32291667,24.25 6.66666667,23.59375 6.66666667,22.7916667 C6.66666667,21.9895833 7.32291667,21.3333333 8.125,21.3333333 L16.875,21.3333333 C17.6770833,21.3333333 18.3333333,21.9895833 18.3333333,22.7916667 C18.3333333,23.59375 17.6770833,24.25 16.875,24.25 Z M16.875,18.4166667 L8.125,18.4166667 C7.32291667,18.4166667 6.66666667,17.7604167 6.66666667,16.9583333 C6.66666667,16.15625 7.32291667,15.5 8.125,15.5 L16.875,15.5 C17.6770833,15.5 18.3333333,16.15625 18.3333333,16.9583333 C18.3333333,17.7604167 17.6770833,18.4166667 16.875,18.4166667 Z M13.9583333,9.66666667 L13.9583333,3.10416667 L21.9791667,11.125 L15.4166667,11.125 C14.6145833,11.125 13.9583333,10.46875 13.9583333,9.66666667 Z" id="Shape"></path>
        </g>
    </g>
</svg>