<?xml version="1.0" encoding="UTF-8"?>
<svg width="14px" height="14px" viewBox="0 0 14 14" version="1.1" xmlns="http://www.w3.org/2000/svg" xmlns:xlink="http://www.w3.org/1999/xlink">
    <!-- Generator: Sketch 61 (89581) - https://sketch.com -->
    <title>apps-24px</title>
    <desc>Created with Sketch.</desc>
    <defs>
        <rect id="path-1" x="141" y="161" width="1099" height="222" rx="4"></rect>
        <filter x="-0.9%" y="-3.6%" width="101.8%" height="109.0%" filterUnits="objectBoundingBox" id="filter-2">
            <feOffset dx="0" dy="2" in="SourceAlpha" result="shadowOffsetOuter1"></feOffset>
            <feGaussianBlur stdDeviation="3" in="shadowOffsetOuter1" result="shadowBlurOuter1"></feGaussianBlur>
            <feColorMatrix values="0 0 0 0 0   0 0 0 0 0   0 0 0 0 0  0 0 0 0.3 0" type="matrix" in="shadowBlurOuter1"></feColorMatrix>
        </filter>
    </defs>
    <g id="Reportes" stroke="none" stroke-width="1" fill="none" fill-rule="evenodd">
        <g id="Reportería_R4_03" transform="translate(-1149.000000, -177.000000)">
            <g id="Rectangle" transform="translate(690.500000, 272.000000) scale(1, -1) rotate(180.000000) translate(-690.500000, -272.000000) ">
                <use fill="black" fill-opacity="1" filter="url(#filter-2)" xlink:href="#path-1"></use>
                <use fill="#FFFFFF" fill-rule="evenodd" xlink:href="#path-1"></use>
            </g>
            <g id="apps-24px" transform="translate(1146.000000, 174.000000)">
                <polygon id="Path" points="0 0 20 0 20 20 0 20"></polygon>
                <path d="M3.33333333,6.66666667 L6.66666667,6.66666667 L6.66666667,3.33333333 L3.33333333,3.33333333 L3.33333333,6.66666667 Z M8.33333333,16.6666667 L11.6666667,16.6666667 L11.6666667,13.3333333 L8.33333333,13.3333333 L8.33333333,16.6666667 Z M3.33333333,16.6666667 L6.66666667,16.6666667 L6.66666667,13.3333333 L3.33333333,13.3333333 L3.33333333,16.6666667 Z M3.33333333,11.6666667 L6.66666667,11.6666667 L6.66666667,8.33333333 L3.33333333,8.33333333 L3.33333333,11.6666667 Z M8.33333333,11.6666667 L11.6666667,11.6666667 L11.6666667,8.33333333 L8.33333333,8.33333333 L8.33333333,11.6666667 Z M13.3333333,3.33333333 L13.3333333,6.66666667 L16.6666667,6.66666667 L16.6666667,3.33333333 L13.3333333,3.33333333 Z M8.33333333,6.66666667 L11.6666667,6.66666667 L11.6666667,3.33333333 L8.33333333,3.33333333 L8.33333333,6.66666667 Z M13.3333333,11.6666667 L16.6666667,11.6666667 L16.6666667,8.33333333 L13.3333333,8.33333333 L13.3333333,11.6666667 Z M13.3333333,16.6666667 L16.6666667,16.6666667 L16.6666667,13.3333333 L13.3333333,13.3333333 L13.3333333,16.6666667 Z" id="Shape" fill="#0083E9" fill-rule="nonzero"></path>
            </g>
        </g>
    </g>
</svg>