<?xml version="1.0" encoding="UTF-8"?>
<svg width="30px" height="33px" viewBox="0 0 30 33" version="1.1" xmlns="http://www.w3.org/2000/svg" xmlns:xlink="http://www.w3.org/1999/xlink">
    <!-- Generator: Sketch 61 (89581) - https://sketch.com -->
    <title>noun_health insurance_1334449</title>
    <desc>Created with Sketch.</desc>
    <defs>
        <rect id="path-1" x="0" y="0" width="440" height="70" rx="8"></rect>
        <filter x="-2.4%" y="-10.7%" width="104.8%" height="130.0%" filterUnits="objectBoundingBox" id="filter-2">
            <feOffset dx="0" dy="3" in="SourceAlpha" result="shadowOffsetOuter1"></feOffset>
            <feGaussianBlur stdDeviation="3" in="shadowOffsetOuter1" result="shadowBlurOuter1"></feGaussianBlur>
            <feColorMatrix values="0 0 0 0 0   0 0 0 0 0   0 0 0 0 0  0 0 0 0.14920236 0" type="matrix" in="shadowBlurOuter1"></feColorMatrix>
        </filter>
        <linearGradient x1="50%" y1="0%" x2="50%" y2="100%" id="linearGradient-3">
            <stop stop-color="#279DFA" offset="0%"></stop>
            <stop stop-color="#0083E9" offset="100%"></stop>
        </linearGradient>
        <linearGradient x1="50%" y1="0%" x2="50%" y2="100%" id="linearGradient-4">
            <stop stop-color="#279DFA" offset="0%"></stop>
            <stop stop-color="#0083E9" offset="100%"></stop>
        </linearGradient>
        <linearGradient x1="50%" y1="0%" x2="50%" y2="100%" id="linearGradient-5">
            <stop stop-color="#279DFA" offset="0%"></stop>
            <stop stop-color="#0083E9" offset="100%"></stop>
        </linearGradient>
    </defs>
    <g id="Reportes" stroke="none" stroke-width="1" fill="none" fill-rule="evenodd">
        <g id="Reportería_R0_01" transform="translate(-746.000000, -497.000000)">
            <g id="Group-12" transform="translate(224.000000, 193.000000)">
                <g id="Group-10" transform="translate(495.000000, 285.000000)">
                    <g id="Rectangle-Copy-12" transform="translate(220.000000, 35.000000) rotate(-360.000000) translate(-220.000000, -35.000000) ">
                        <use fill="black" fill-opacity="1" filter="url(#filter-2)" xlink:href="#path-1"></use>
                        <use fill="#FFFFFF" fill-rule="evenodd" xlink:href="#path-1"></use>
                    </g>
                </g>
                <g id="noun_health-insurance_1334449" transform="translate(522.000000, 304.000000)" fill-rule="nonzero">
                    <g id="Group">
                        <path d="M27,23.625 C26.1818182,23.8977273 24.8522727,24.2045455 23.4204545,24.4772727 C22.875,25.2954545 21.9204545,25.9772727 20.4545455,26.2159091 C20.1136364,26.2840909 19.7045455,26.2840909 19.2954545,26.2840909 C18.2727273,26.2840909 17.0795455,26.1477273 15.7159091,25.9772727 C15.6136364,25.9772727 15.5113636,25.9431818 15.4090909,25.9431818 C15.0681818,25.9090909 14.7954545,25.6022727 14.8295455,25.2613636 C14.8636364,24.8863636 15.1704545,24.6136364 15.5454545,24.6477273 C15.6477273,24.6477273 15.75,24.6818182 15.8522727,24.6818182 C17.5568182,24.8863636 19.1931818,25.0568182 20.2159091,24.8863636 C22.125,24.5795455 22.7045455,23.4545455 22.6022727,22.4659091 C22.5340909,21.6818182 21.9545455,20.8977273 21.0340909,20.9318182 C19.7045455,21 18.1363636,20.8295455 16.6022727,20.6931818 C14.8636364,20.5227273 13.0568182,20.3522727 11.7954545,20.5227273 C11.0795455,20.625 9.85227273,21.0681818 8.59090909,21.5795455 C8.28409091,21.7159091 8.01136364,21.8181818 7.70454545,21.9545455 L7.70454545,30.375 C10.2954545,31.2954545 13.4659091,32.2840909 15.3409091,32.4545455 C19.125,32.7613636 26.5227273,28.4659091 28.6363636,27.1022727 C30.75,25.8068182 29.3522727,22.8409091 27,23.625 Z" id="Path" fill="url(#linearGradient-3)"></path>
                        <path d="M5.55681818,20.5568182 L1.19318182,20.5568182 C0.715909091,20.5568182 0.306818182,20.9318182 0.306818182,21.4431818 L0.306818182,31.0227273 C0.306818182,31.5 0.681818182,31.9090909 1.19318182,31.9090909 L5.55681818,31.9090909 C6.03409091,31.9090909 6.44318182,31.5340909 6.44318182,31.0227273 L6.44318182,21.4090909 C6.40909091,20.9318182 6.03409091,20.5568182 5.55681818,20.5568182 Z" id="Path" fill="url(#linearGradient-4)"></path>
                        <path d="M15,17.6590909 C19.8409091,17.6590909 23.7272727,13.7386364 23.7272727,8.93181818 C23.7272727,4.125 19.8409091,0.170454545 15,0.170454545 C10.1590909,0.170454545 6.27272727,4.09090909 6.27272727,8.89772727 C6.27272727,13.7045455 10.1590909,17.6590909 15,17.6590909 Z M10.125,7.875 C10.125,7.53409091 10.3977273,7.26136364 10.7386364,7.26136364 L13.3636364,7.26136364 L13.3636364,4.63636364 C13.3636364,4.29545455 13.6363636,4.02272727 13.9772727,4.02272727 L16.0227273,4.02272727 C16.3636364,4.02272727 16.6363636,4.29545455 16.6363636,4.63636364 L16.6363636,7.26136364 L19.2613636,7.26136364 C19.6022727,7.26136364 19.875,7.53409091 19.875,7.875 L19.875,9.95454545 C19.875,10.2954545 19.6022727,10.5681818 19.2613636,10.5681818 L16.6363636,10.5681818 L16.6363636,13.1931818 C16.6363636,13.5340909 16.3636364,13.8068182 16.0227273,13.8068182 L13.9772727,13.8068182 C13.6363636,13.8068182 13.3636364,13.5340909 13.3636364,13.1931818 L13.3636364,10.5681818 L10.7386364,10.5681818 C10.3977273,10.5681818 10.125,10.2954545 10.125,9.95454545 L10.125,7.875 Z" id="Shape" fill="url(#linearGradient-5)"></path>
                    </g>
                </g>
            </g>
        </g>
    </g>
</svg>