<?xml version="1.0" encoding="UTF-8"?>
<svg width="30px" height="33px" viewBox="0 0 30 33" version="1.1" xmlns="http://www.w3.org/2000/svg" xmlns:xlink="http://www.w3.org/1999/xlink">
    <!-- Generator: Sketch 61 (89581) - https://sketch.com -->
    <title>noun_health insurance_1334449</title>
    <desc>Created with Sketch.</desc>
    <g id="Reportes" stroke="none" stroke-width="1" fill="none" fill-rule="evenodd">
        <g id="Group-4" transform="translate(-399.000000, -10.000000)">
            <g id="Group" transform="translate(380.000000, 0.000000)">
                <rect id="Rectangle" fill="url(#linearGradient-1)" x="0" y="0" width="147" height="53" rx="4"></rect>
                <g id="noun_health-insurance_1334449" transform="translate(19.000000, 10.000000)" fill="#FFFFFF" fill-rule="nonzero" opacity="0.8">
                    <g id="Group">
                        <path d="M27.225,23.821875 C26.4,24.096875 25.059375,24.40625 23.615625,24.68125 C23.065625,25.50625 22.103125,26.19375 20.625,26.434375 C20.28125,26.503125 19.86875,26.503125 19.45625,26.503125 C18.425,26.503125 17.221875,26.365625 15.846875,26.19375 C15.74375,26.19375 15.640625,26.159375 15.5375,26.159375 C15.19375,26.125 14.91875,25.815625 14.953125,25.471875 C14.9875,25.09375 15.296875,24.81875 15.675,24.853125 C15.778125,24.853125 15.88125,24.8875 15.984375,24.8875 C17.703125,25.09375 19.353125,25.265625 20.384375,25.09375 C22.309375,24.784375 22.89375,23.65 22.790625,22.653125 C22.721875,21.8625 22.1375,21.071875 21.209375,21.10625 C19.86875,21.175 18.2875,21.003125 16.740625,20.865625 C14.9875,20.69375 13.165625,20.521875 11.89375,20.69375 C11.171875,20.796875 9.934375,21.24375 8.6625,21.759375 C8.353125,21.896875 8.078125,22 7.76875,22.1375 L7.76875,30.628125 C10.38125,31.55625 13.578125,32.553125 15.46875,32.725 C19.284375,33.034375 26.74375,28.703125 28.875,27.328125 C31.00625,26.021875 29.596875,23.03125 27.225,23.821875 Z" id="Path"></path>
                        <path d="M5.603125,20.728125 L1.203125,20.728125 C0.721875,20.728125 0.309375,21.10625 0.309375,21.621875 L0.309375,31.28125 C0.309375,31.7625 0.6875,32.175 1.203125,32.175 L5.603125,32.175 C6.084375,32.175 6.496875,31.796875 6.496875,31.28125 L6.496875,21.5875 C6.4625,21.10625 6.084375,20.728125 5.603125,20.728125 Z" id="Path"></path>
                        <path d="M15.125,17.80625 C20.00625,17.80625 23.925,13.853125 23.925,9.00625 C23.925,4.159375 20.00625,0.171875 15.125,0.171875 C10.24375,0.171875 6.325,4.125 6.325,8.971875 C6.325,13.81875 10.24375,17.80625 15.125,17.80625 Z M10.209375,7.940625 C10.209375,7.596875 10.484375,7.321875 10.828125,7.321875 L13.475,7.321875 L13.475,4.675 C13.475,4.33125 13.75,4.05625 14.09375,4.05625 L16.15625,4.05625 C16.5,4.05625 16.775,4.33125 16.775,4.675 L16.775,7.321875 L19.421875,7.321875 C19.765625,7.321875 20.040625,7.596875 20.040625,7.940625 L20.040625,10.0375 C20.040625,10.38125 19.765625,10.65625 19.421875,10.65625 L16.775,10.65625 L16.775,13.303125 C16.775,13.646875 16.5,13.921875 16.15625,13.921875 L14.09375,13.921875 C13.75,13.921875 13.475,13.646875 13.475,13.303125 L13.475,10.65625 L10.828125,10.65625 C10.484375,10.65625 10.209375,10.38125 10.209375,10.0375 L10.209375,7.940625 Z" id="Shape"></path>
                    </g>
                </g>
            </g>
        </g>
    </g>
</svg>