<?xml version="1.0" encoding="UTF-8"?>
<svg width="35px" height="26px" viewBox="0 0 35 26" version="1.1" xmlns="http://www.w3.org/2000/svg" xmlns:xlink="http://www.w3.org/1999/xlink">
    <!-- Generator: Sketch 61 (89581) - https://sketch.com -->
    <title>noun_Destroyed_2103911</title>
    <desc>Created with Sketch.</desc>
    <g id="Reportes" stroke="none" stroke-width="1" fill="none" fill-rule="evenodd">
        <g id="GO_Grupos-prioritarios-–-04" transform="translate(-1006.000000, -166.000000)">
            <g id="Group" transform="translate(777.000000, 151.000000)">
                <rect id="Rectangle" fill="url(#linearGradient-1)" x="0" y="0" width="424" height="53" rx="4"></rect>
                <g id="noun_Destroyed_2103911" opacity="0.8" transform="translate(229.000000, 15.000000)" fill="#FFFFFF" fill-rule="nonzero">
                    <path d="M33.7389861,25.9890056 C29.5396953,25.4257483 24.8983738,25.0877938 19.9623653,25.0126928 L21.8041595,22.3841584 C21.8409954,22.3090574 21.8409954,22.2339564 21.8041595,22.1588555 L19.0046323,16.3009787 C18.9677964,16.2258778 18.9677964,16.1507768 19.0046323,16.0756758 L21.5094724,12.1704246 C21.5463083,12.0953237 21.5463083,12.0202227 21.5094724,11.9451217 L19.2256476,8.15252202 C19.1151399,7.96476956 18.8204529,8.03987054 18.8204529,8.30272398 L19.1888117,11.7573692 C19.1888117,11.8324702 19.1888117,11.9075712 19.1151399,11.9451217 L15.2473721,15.6250699 C15.1737003,15.7001709 15.1737003,15.7752719 15.2105362,15.8503728 L17.3470175,20.5817348 C17.3838534,20.6568358 17.3838534,20.7319368 17.3101816,20.8070378 L13.4424137,25.0502433 C9.09577934,25.1628948 4.97016027,25.5008492 1.24973593,25.9890056 C0.144659398,26.1392076 -0.444714754,24.7122889 0.40251059,23.9988296 C1.8022742,22.8347643 4.08609904,21.8584515 6.88562627,21.1449922 L9.09577934,7.96476956 L7.58550807,7.70191611 C7.14347746,7.62681513 6.8119545,7.17620923 6.88562627,6.72560333 L7.06980569,5.71174005 C7.10664157,5.41133611 7.32765688,5.14848267 7.62234396,5.0358312 L12.8530396,3.12075611 L13.2950702,0.56732267 C13.3687419,0.191817752 13.7002649,-0.0334851986 14.0686238,0.00406529321 L15.7999103,0.304469228 C16.1682692,0.379570211 16.3892845,0.717524638 16.3524486,1.09302956 L16.2051051,1.91914038 L20.8832624,0.229368244 C21.1779495,0.116716769 21.4726365,0.191817752 21.6936518,0.379570211 L32.486566,9.39168825 C32.7075813,9.57944071 32.818089,9.87984464 32.7812531,10.1802486 L32.5970737,11.1941119 C32.5234019,11.6447178 32.0813713,11.9826722 31.6393407,11.9075712 L30.1290694,11.6447178 L28.5082905,21.2576437 C31.1236383,21.971103 33.2601196,22.9098653 34.6230473,24.0363801 C35.4334368,24.7122889 34.8440626,26.1392076 33.7389861,25.9890056 Z" id="Path"></path>
                </g>
            </g>
        </g>
    </g>
</svg>