<?xml version="1.0" encoding="UTF-8"?>
<svg width="25px" height="25px" viewBox="0 0 25 25" version="1.1" xmlns="http://www.w3.org/2000/svg" xmlns:xlink="http://www.w3.org/1999/xlink">
    <!-- Generator: Sketch 61 (89581) - https://sketch.com -->
    <title>announcement-24px</title>
    <desc>Created with Sketch.</desc>
    <defs>
        <rect id="path-1" x="0" y="0" width="440" height="70" rx="8"></rect>
        <filter x="-2.4%" y="-10.7%" width="104.8%" height="130.0%" filterUnits="objectBoundingBox" id="filter-2">
            <feOffset dx="0" dy="3" in="SourceAlpha" result="shadowOffsetOuter1"></feOffset>
            <feGaussianBlur stdDeviation="3" in="shadowOffsetOuter1" result="shadowBlurOuter1"></feGaussianBlur>
            <feColorMatrix values="0 0 0 0 0   0 0 0 0 0   0 0 0 0 0  0 0 0 0.14920236 0" type="matrix" in="shadowBlurOuter1"></feColorMatrix>
        </filter>
        <linearGradient x1="50%" y1="0%" x2="50%" y2="100%" id="linearGradient-3">
            <stop stop-color="#279DFA" offset="0%"></stop>
            <stop stop-color="#0083E9" offset="100%"></stop>
        </linearGradient>
    </defs>
    <g id="Reportes" stroke="none" stroke-width="1" fill="none" fill-rule="evenodd">
        <g id="Reportería_R0_01" transform="translate(-254.000000, -595.000000)">
            <g id="Group-12" transform="translate(224.000000, 193.000000)">
                <g id="Group-7" transform="translate(2.000000, 380.000000)">
                    <g id="Rectangle-Copy-12" transform="translate(220.000000, 35.000000) rotate(-360.000000) translate(-220.000000, -35.000000) ">
                        <use fill="black" fill-opacity="1" filter="url(#filter-2)" xlink:href="#path-1"></use>
                        <use fill="#FFFFFF" fill-rule="evenodd" xlink:href="#path-1"></use>
                    </g>
                    <g id="announcement-24px" transform="translate(25.000000, 20.000000)">
                        <polygon id="Path" points="0 0 30 0 30 30 0 30"></polygon>
                        <path d="M25.5,2 L5.5,2 C4.125,2 3,3.125 3,4.5 L3,27 L8,22 L25.5,22 C26.875,22 28,20.875 28,19.5 L28,4.5 C28,3.125 26.875,2 25.5,2 Z M15.5,13.25 C14.8125,13.25 14.25,12.6875 14.25,12 L14.25,7 C14.25,6.3125 14.8125,5.75 15.5,5.75 C16.1875,5.75 16.75,6.3125 16.75,7 L16.75,12 C16.75,12.6875 16.1875,13.25 15.5,13.25 Z M16.75,18.25 L14.25,18.25 L14.25,15.75 L16.75,15.75 L16.75,18.25 Z" id="Shape" fill="url(#linearGradient-3)" fill-rule="nonzero"></path>
                    </g>
                </g>
            </g>
        </g>
    </g>
</svg>