<?xml version="1.0" encoding="UTF-8"?>
<svg width="28px" height="26px" viewBox="0 0 28 26" version="1.1" xmlns="http://www.w3.org/2000/svg" xmlns:xlink="http://www.w3.org/1999/xlink">
    <!-- Generator: Sketch 61 (89581) - https://sketch.com -->
    <title>Group 11</title>
    <desc>Created with Sketch.</desc>
    <defs>
        <rect id="path-1" x="0" y="0" width="440" height="70" rx="8"></rect>
        <filter x="-2.4%" y="-10.7%" width="104.8%" height="130.0%" filterUnits="objectBoundingBox" id="filter-2">
            <feOffset dx="0" dy="3" in="SourceAlpha" result="shadowOffsetOuter1"></feOffset>
            <feGaussianBlur stdDeviation="3" in="shadowOffsetOuter1" result="shadowBlurOuter1"></feGaussianBlur>
            <feColorMatrix values="0 0 0 0 0   0 0 0 0 0   0 0 0 0 0  0 0 0 0.14920236 0" type="matrix" in="shadowBlurOuter1"></feColorMatrix>
        </filter>
        <linearGradient x1="50%" y1="0%" x2="50%" y2="100%" id="linearGradient-3">
            <stop stop-color="#279DFA" offset="0%"></stop>
            <stop stop-color="#0083E9" offset="100%"></stop>
        </linearGradient>
    </defs>
    <g id="Reportes" stroke="none" stroke-width="1" fill="none" fill-rule="evenodd">
        <g id="Reportería_R0_01" transform="translate(-747.000000, -309.000000)">
            <g id="Group-12" transform="translate(224.000000, 193.000000)">
                <g id="Group-9" transform="translate(495.000000, 95.000000)">
                    <g id="Rectangle-Copy-12" transform="translate(220.000000, 35.000000) rotate(-360.000000) translate(-220.000000, -35.000000) ">
                        <use fill="black" fill-opacity="1" filter="url(#filter-2)" xlink:href="#path-1"></use>
                        <use fill="#FFFFFF" fill-rule="evenodd" xlink:href="#path-1"></use>
                    </g>
                    <g id="Group-11" transform="translate(25.000000, 20.000000)">
                        <g id="assignment-24px">
                            <polygon id="Path" points="0 0 30 0 30 30 0 30"></polygon>
                            <path d="M23.75,3.75 L18.525,3.75 C18,2.3 16.625,1.25 15,1.25 C13.375,1.25 12,2.3 11.475,3.75 L6.25,3.75 C4.875,3.75 3.75,4.875 3.75,6.25 L3.75,23.75 C3.75,25.125 4.875,26.25 6.25,26.25 L23.75,26.25 C25.125,26.25 26.25,25.125 26.25,23.75 L26.25,6.25 C26.25,4.875 25.125,3.75 23.75,3.75 Z M15,3.75 C15.6875,3.75 16.25,4.3125 16.25,5 C16.25,5.6875 15.6875,6.25 15,6.25 C14.3125,6.25 13.75,5.6875 13.75,5 C13.75,4.3125 14.3125,3.75 15,3.75 Z M16.25,21.25 L10,21.25 C9.3125,21.25 8.75,20.6875 8.75,20 C8.75,19.3125 9.3125,18.75 10,18.75 L16.25,18.75 C16.9375,18.75 17.5,19.3125 17.5,20 C17.5,20.6875 16.9375,21.25 16.25,21.25 Z M20,16.25 L10,16.25 C9.3125,16.25 8.75,15.6875 8.75,15 C8.75,14.3125 9.3125,13.75 10,13.75 L20,13.75 C20.6875,13.75 21.25,14.3125 21.25,15 C21.25,15.6875 20.6875,16.25 20,16.25 Z M20,11.25 L10,11.25 C9.3125,11.25 8.75,10.6875 8.75,10 C8.75,9.3125 9.3125,8.75 10,8.75 L20,8.75 C20.6875,8.75 21.25,9.3125 21.25,10 C21.25,10.6875 20.6875,11.25 20,11.25 Z" id="Shape" fill="url(#linearGradient-3)" fill-rule="nonzero"></path>
                        </g>
                        <g id="timeline-24px" transform="translate(11.379310, 11.379310)">
                            <rect id="Rectangle" x="0" y="0" width="18.6206897" height="18.6206897"></rect>
                            <path d="M18.6206897,6.20689655 C18.6206897,7.06034483 17.9065439,7.75862069 17.0336991,7.75862069 C16.8908699,7.75862069 16.7559757,7.74310345 16.6290165,7.70431034 L13.8041732,10.4586207 C13.843848,10.5827586 13.8597179,10.7224138 13.8597179,10.862069 C13.8597179,11.7155172 13.1455721,12.4137931 12.2727273,12.4137931 C11.3998824,12.4137931 10.6857367,11.7155172 10.6857367,10.862069 C10.6857367,10.7224138 10.7016066,10.5827586 10.7412813,10.4586207 L8.71786834,8.48017241 C8.59090909,8.51896552 8.44807994,8.53448276 8.30525078,8.53448276 C8.16242163,8.53448276 8.01959248,8.51896552 7.89263323,8.48017241 L4.28222962,12.0181034 C4.32190439,12.1422414 4.33777429,12.2741379 4.33777429,12.4137931 C4.33777429,13.2672414 3.62362853,13.9655172 2.7507837,13.9655172 C1.87793887,13.9655172 1.1637931,13.2672414 1.1637931,12.4137931 C1.1637931,11.5603448 1.87793887,10.862069 2.7507837,10.862069 C2.89361285,10.862069 3.02850705,10.8775862 3.1554663,10.9163793 L6.77380486,7.3862069 C6.73413009,7.26206897 6.71826019,7.12241379 6.71826019,6.98275862 C6.71826019,6.12931034 7.43240596,5.43103448 8.30525078,5.43103448 C9.17809561,5.43103448 9.89224138,6.12931034 9.89224138,6.98275862 C9.89224138,7.12241379 9.87637147,7.26206897 9.83669671,7.3862069 L11.8601097,9.36465517 C11.987069,9.32586207 12.1298981,9.31034483 12.2727273,9.31034483 C12.4155564,9.31034483 12.5583856,9.32586207 12.6853448,9.36465517 L15.5022531,6.60258621 C15.4625784,6.47844828 15.4467085,6.34655172 15.4467085,6.20689655 C15.4467085,5.35344828 16.1608542,4.65517241 17.0336991,4.65517241 C17.9065439,4.65517241 18.6206897,5.35344828 18.6206897,6.20689655 Z M18.6206897,6.20689655 C18.6206897,7.06034483 17.9065439,7.75862069 17.0336991,7.75862069 C16.8908699,7.75862069 16.7559757,7.74310345 16.6290165,7.70431034 L13.8041732,10.4586207 C13.843848,10.5827586 13.8597179,10.7224138 13.8597179,10.862069 C13.8597179,11.7155172 13.1455721,12.4137931 12.2727273,12.4137931 C11.3998824,12.4137931 10.6857367,11.7155172 10.6857367,10.862069 C10.6857367,10.7224138 10.7016066,10.5827586 10.7412813,10.4586207 L8.71786834,8.48017241 C8.59090909,8.51896552 8.44807994,8.53448276 8.30525078,8.53448276 C8.16242163,8.53448276 8.01959248,8.51896552 7.89263323,8.48017241 L4.28222962,12.0181034 C4.32190439,12.1422414 4.33777429,12.2741379 4.33777429,12.4137931 C4.33777429,13.2672414 3.62362853,13.9655172 2.7507837,13.9655172 C1.87793887,13.9655172 1.1637931,13.2672414 1.1637931,12.4137931 C1.1637931,11.5603448 1.87793887,10.862069 2.7507837,10.862069 C2.89361285,10.862069 3.02850705,10.8775862 3.1554663,10.9163793 L6.77380486,7.3862069 C6.73413009,7.26206897 6.71826019,7.12241379 6.71826019,6.98275862 C6.71826019,6.12931034 7.43240596,5.43103448 8.30525078,5.43103448 C9.17809561,5.43103448 9.89224138,6.12931034 9.89224138,6.98275862 C9.89224138,7.12241379 9.87637147,7.26206897 9.83669671,7.3862069 L11.8601097,9.36465517 C11.987069,9.32586207 12.1298981,9.31034483 12.2727273,9.31034483 C12.4155564,9.31034483 12.5583856,9.32586207 12.6853448,9.36465517 L15.5022531,6.60258621 C15.4625784,6.47844828 15.4467085,6.34655172 15.4467085,6.20689655 C15.4467085,5.35344828 16.1608542,4.65517241 17.0336991,4.65517241 C17.9065439,4.65517241 18.6206897,5.35344828 18.6206897,6.20689655 Z" id="Shape" stroke="#FFFFFF" stroke-width="0.8" fill="#0083E9" fill-rule="nonzero"></path>
                        </g>
                    </g>
                </g>
            </g>
        </g>
    </g>
</svg>