<?xml version="1.0" encoding="UTF-8"?>
<svg width="29px" height="24px" viewBox="0 0 29 24" version="1.1" xmlns="http://www.w3.org/2000/svg" xmlns:xlink="http://www.w3.org/1999/xlink">
    <!-- Generator: Sketch 61 (89581) - https://sketch.com -->
    <title>Group 2</title>
    <desc>Created with Sketch.</desc>
    <defs>
        <rect id="path-1" x="0" y="0" width="440" height="70" rx="8"></rect>
        <filter x="-2.4%" y="-10.7%" width="104.8%" height="130.0%" filterUnits="objectBoundingBox" id="filter-2">
            <feOffset dx="0" dy="3" in="SourceAlpha" result="shadowOffsetOuter1"></feOffset>
            <feGaussianBlur stdDeviation="3" in="shadowOffsetOuter1" result="shadowBlurOuter1"></feGaussianBlur>
            <feColorMatrix values="0 0 0 0 0   0 0 0 0 0   0 0 0 0 0  0 0 0 0.14920236 0" type="matrix" in="shadowBlurOuter1"></feColorMatrix>
        </filter>
        <linearGradient x1="50%" y1="0%" x2="50%" y2="100%" id="linearGradient-3">
            <stop stop-color="#279DFA" offset="0%"></stop>
            <stop stop-color="#0083E9" offset="100%"></stop>
        </linearGradient>
    </defs>
    <g id="Reportes" stroke="none" stroke-width="1" fill="none" fill-rule="evenodd">
        <g id="Reportería_R0_01" transform="translate(-747.000000, -216.000000)">
            <g id="Group-12" transform="translate(224.000000, 193.000000)">
                <g id="Group-8" transform="translate(495.000000, 0.000000)">
                    <g id="Rectangle-Copy-12" transform="translate(220.000000, 35.000000) rotate(-360.000000) translate(-220.000000, -35.000000) ">
                        <use fill="black" fill-opacity="1" filter="url(#filter-2)" xlink:href="#path-1"></use>
                        <use fill="#FFFFFF" fill-rule="evenodd" xlink:href="#path-1"></use>
                    </g>
                    <g id="Group-2" transform="translate(24.000000, 19.000000)">
                        <g id="Group">
                            <polygon id="Path" points="0 0 32 0 32 32 0 32"></polygon>
                            <path d="M16.0082188,14.7692308 C18.7368691,14.7692308 20.9230769,12.5702564 20.9230769,9.84615385 C20.9230769,7.12205128 18.7368691,4.92307692 16.0082188,4.92307692 C13.2795685,4.92307692 11.0769231,7.12205128 11.0769231,9.84615385 C11.0769231,12.5702564 13.2795685,14.7692308 16.0082188,14.7692308 Z M16,17.2307692 C12.312967,17.2307692 4.92307692,19.1507692 4.92307692,22.974359 L4.92307692,25.4358974 C4.92307692,26.3384615 5.63516484,27.0769231 6.50549451,27.0769231 L25.4945055,27.0769231 C26.3648352,27.0769231 27.0769231,26.3384615 27.0769231,25.4358974 L27.0769231,22.974359 C27.0769231,19.1507692 19.687033,17.2307692 16,17.2307692 Z" id="Shape" fill="url(#linearGradient-3)" fill-rule="nonzero"></path>
                        </g>
                        <g id="timeline-24px" transform="translate(12.000000, 12.000000)">
                            <rect id="Rectangle" x="0" y="0" width="20" height="20"></rect>
                            <path d="M20,6.66666667 C20,7.58333333 19.2329545,8.33333333 18.2954545,8.33333333 C18.1420455,8.33333333 17.9971591,8.31666667 17.8607955,8.275 L14.8267045,11.2333333 C14.8693182,11.3666667 14.8863636,11.5166667 14.8863636,11.6666667 C14.8863636,12.5833333 14.1193182,13.3333333 13.1818182,13.3333333 C12.2443182,13.3333333 11.4772727,12.5833333 11.4772727,11.6666667 C11.4772727,11.5166667 11.4943182,11.3666667 11.5369318,11.2333333 L9.36363636,9.10833333 C9.22727273,9.15 9.07386364,9.16666667 8.92045455,9.16666667 C8.76704545,9.16666667 8.61363636,9.15 8.47727273,9.10833333 L4.59943182,12.9083333 C4.64204545,13.0416667 4.65909091,13.1833333 4.65909091,13.3333333 C4.65909091,14.25 3.89204545,15 2.95454545,15 C2.01704545,15 1.25,14.25 1.25,13.3333333 C1.25,12.4166667 2.01704545,11.6666667 2.95454545,11.6666667 C3.10795455,11.6666667 3.25284091,11.6833333 3.38920455,11.725 L7.27556818,7.93333333 C7.23295455,7.8 7.21590909,7.65 7.21590909,7.5 C7.21590909,6.58333333 7.98295455,5.83333333 8.92045455,5.83333333 C9.85795455,5.83333333 10.625,6.58333333 10.625,7.5 C10.625,7.65 10.6079545,7.8 10.5653409,7.93333333 L12.7386364,10.0583333 C12.875,10.0166667 13.0284091,10 13.1818182,10 C13.3352273,10 13.4886364,10.0166667 13.625,10.0583333 L16.6505682,7.09166667 C16.6079545,6.95833333 16.5909091,6.81666667 16.5909091,6.66666667 C16.5909091,5.75 17.3579545,5 18.2954545,5 C19.2329545,5 20,5.75 20,6.66666667 Z M20,6.66666667 C20,7.58333333 19.2329545,8.33333333 18.2954545,8.33333333 C18.1420455,8.33333333 17.9971591,8.31666667 17.8607955,8.275 L14.8267045,11.2333333 C14.8693182,11.3666667 14.8863636,11.5166667 14.8863636,11.6666667 C14.8863636,12.5833333 14.1193182,13.3333333 13.1818182,13.3333333 C12.2443182,13.3333333 11.4772727,12.5833333 11.4772727,11.6666667 C11.4772727,11.5166667 11.4943182,11.3666667 11.5369318,11.2333333 L9.36363636,9.10833333 C9.22727273,9.15 9.07386364,9.16666667 8.92045455,9.16666667 C8.76704545,9.16666667 8.61363636,9.15 8.47727273,9.10833333 L4.59943182,12.9083333 C4.64204545,13.0416667 4.65909091,13.1833333 4.65909091,13.3333333 C4.65909091,14.25 3.89204545,15 2.95454545,15 C2.01704545,15 1.25,14.25 1.25,13.3333333 C1.25,12.4166667 2.01704545,11.6666667 2.95454545,11.6666667 C3.10795455,11.6666667 3.25284091,11.6833333 3.38920455,11.725 L7.27556818,7.93333333 C7.23295455,7.8 7.21590909,7.65 7.21590909,7.5 C7.21590909,6.58333333 7.98295455,5.83333333 8.92045455,5.83333333 C9.85795455,5.83333333 10.625,6.58333333 10.625,7.5 C10.625,7.65 10.6079545,7.8 10.5653409,7.93333333 L12.7386364,10.0583333 C12.875,10.0166667 13.0284091,10 13.1818182,10 C13.3352273,10 13.4886364,10.0166667 13.625,10.0583333 L16.6505682,7.09166667 C16.6079545,6.95833333 16.5909091,6.81666667 16.5909091,6.66666667 C16.5909091,5.75 17.3579545,5 18.2954545,5 C19.2329545,5 20,5.75 20,6.66666667 Z" id="Shape" stroke="#FFFFFF" stroke-width="0.8" fill="#0083E9" fill-rule="nonzero"></path>
                        </g>
                    </g>
                </g>
            </g>
        </g>
    </g>
</svg>