<?xml version="1.0" encoding="UTF-8"?>
<svg width="33px" height="21px" viewBox="0 0 33 21" version="1.1" xmlns="http://www.w3.org/2000/svg" xmlns:xlink="http://www.w3.org/1999/xlink">
    <!-- Generator: Sketch 61 (89581) - https://sketch.com -->
    <title>group-24px</title>
    <desc>Created with Sketch.</desc>
    <g id="Reportes" stroke="none" stroke-width="1" fill="none" fill-rule="evenodd">
        <g id="GO_Grupos-prioritarios-–-06" transform="translate(-796.000000, -169.000000)">
            <g id="Group-15" transform="translate(170.000000, 151.000000)">
                <g id="Group" transform="translate(607.000000, 0.000000)">
                    <rect id="Rectangle" fill="url(#linearGradient-1)" x="0" y="0" width="424" height="53" rx="4"></rect>
                    <g id="group-24px" opacity="0.8" transform="translate(18.000000, 12.000000)">
                        <polygon id="Path" points="0 0 34.5462963 0 34.5462963 31.8888889 0 31.8888889"></polygon>
                        <path d="M23.0974824,14.8278867 C25.5145811,14.8278867 27.4511723,12.9127669 27.4511723,10.540305 C27.4511723,8.16784314 25.5145811,6.25272331 23.0974824,6.25272331 C20.6803837,6.25272331 18.7292317,8.16784314 18.7292317,10.540305 C18.7292317,12.9127669 20.6803837,14.8278867 23.0974824,14.8278867 Z M11.4488139,14.8278867 C13.8659126,14.8278867 15.8025037,12.9127669 15.8025037,10.540305 C15.8025037,8.16784314 13.8659126,6.25272331 11.4488139,6.25272331 C9.03171518,6.25272331 7.08056321,8.16784314 7.08056321,10.540305 C7.08056321,12.9127669 9.03171518,14.8278867 11.4488139,14.8278867 Z M11.4488139,17.6862745 C8.05613919,17.6862745 1.25622896,19.3584314 1.25622896,22.6884532 L1.25622896,26.2614379 L21.6413988,26.2614379 L21.6413988,22.6884532 C21.6413988,19.3584314 14.8414886,17.6862745 11.4488139,17.6862745 Z M23.0974824,17.6862745 C22.6752182,17.6862745 22.1947106,17.7148584 21.6850813,17.7577342 C23.3741383,18.9582571 24.553566,20.5732462 24.553566,22.6884532 L24.553566,26.2614379 L33.2900673,26.2614379 L33.2900673,22.6884532 C33.2900673,19.3584314 26.4901571,17.6862745 23.0974824,17.6862745 Z" id="Shape" fill="#FFFFFF" fill-rule="nonzero"></path>
                    </g>
                </g>
            </g>
        </g>
    </g>
</svg>