<?xml version="1.0" encoding="UTF-8"?>
<svg width="40px" height="33px" viewBox="0 0 40 33" version="1.1" xmlns="http://www.w3.org/2000/svg" xmlns:xlink="http://www.w3.org/1999/xlink">
    <!-- Generator: Sketch 61 (89581) - https://sketch.com -->
    <title>people-24px</title>
    <desc>Created with Sketch.</desc>
    <defs>
        <rect id="path-1" x="141" y="161" width="1099" height="277" rx="4"></rect>
        <filter x="-0.9%" y="-2.9%" width="101.8%" height="107.2%" filterUnits="objectBoundingBox" id="filter-2">
            <feOffset dx="0" dy="2" in="SourceAlpha" result="shadowOffsetOuter1"></feOffset>
            <feGaussianBlur stdDeviation="3" in="shadowOffsetOuter1" result="shadowBlurOuter1"></feGaussianBlur>
            <feColorMatrix values="0 0 0 0 0   0 0 0 0 0   0 0 0 0 0  0 0 0 0.3 0" type="matrix" in="shadowBlurOuter1"></feColorMatrix>
        </filter>
        <linearGradient x1="50%" y1="0%" x2="50%" y2="100%" id="linearGradient-3">
            <stop stop-color="#279DFA" offset="0%"></stop>
            <stop stop-color="#0083E9" offset="100%"></stop>
        </linearGradient>
        <linearGradient x1="50%" y1="0%" x2="50%" y2="100%" id="linearGradient-4">
            <stop stop-color="#279DFA" offset="0%"></stop>
            <stop stop-color="#0083E9" offset="100%"></stop>
        </linearGradient>
    </defs>
    <g id="Reportes" stroke="none" stroke-width="1" fill="none" fill-rule="evenodd">
        <g id="Reportería_R9_02" transform="translate(-916.000000, -233.000000)">
            <g id="Rectangle" transform="translate(690.500000, 299.500000) scale(1, -1) rotate(180.000000) translate(-690.500000, -299.500000) ">
                <use fill="black" fill-opacity="1" filter="url(#filter-2)" xlink:href="#path-1"></use>
                <use fill="#FFFFFF" fill-rule="evenodd" xlink:href="#path-1"></use>
            </g>
            <g id="people-24px" transform="translate(914.000000, 234.000000)">
                <polygon id="Path" points="0 0 41 0 41 41 0 41"></polygon>
                <path d="M27.9090909,18.2857143 C30.7763636,18.2857143 33.0736364,15.9885714 33.0736364,13.1428571 C33.0736364,10.2971429 30.7763636,8 27.9090909,8 C25.0418182,8 22.7272727,10.2971429 22.7272727,13.1428571 C22.7272727,15.9885714 25.0418182,18.2857143 27.9090909,18.2857143 Z M14.0909091,18.2857143 C16.9581818,18.2857143 19.2554545,15.9885714 19.2554545,13.1428571 C19.2554545,10.2971429 16.9581818,8 14.0909091,8 C11.2236364,8 8.90909091,10.2971429 8.90909091,13.1428571 C8.90909091,15.9885714 11.2236364,18.2857143 14.0909091,18.2857143 Z M14.0909091,21.7142857 C10.0663636,21.7142857 2,23.72 2,27.7142857 L2,30.2857143 C2,31.2285714 2.77727273,32 3.72727273,32 L24.4545455,32 C25.4045455,32 26.1818182,31.2285714 26.1818182,30.2857143 L26.1818182,27.7142857 C26.1818182,23.72 18.1154545,21.7142857 14.0909091,21.7142857 Z M27.9090909,21.7142857 C27.4081818,21.7142857 26.8381818,21.7485714 26.2336364,21.8 C26.2681818,21.8171429 26.2854545,21.8514286 26.3027273,21.8685714 C28.2718182,23.2914286 29.6363636,25.1942857 29.6363636,27.7142857 L29.6363636,30.2857143 C29.6363636,30.8857143 29.5154545,31.4685714 29.3254545,32 L38.2727273,32 C39.2227273,32 40,31.2285714 40,30.2857143 L40,27.7142857 C40,23.72 31.9336364,21.7142857 27.9090909,21.7142857 Z" id="Shape" fill="url(#linearGradient-3)" fill-rule="nonzero"></path>
                <path d="M34.4411766,-0.4 C38.157045,-0.4 41.1647061,2.62613705 41.1647061,6.33585607 C41.1647061,10.0413239 38.1612179,13.047059 34.4411766,13.047059 C30.7253081,13.047059 27.7176471,10.0209219 27.7176471,6.31120293 C27.7176471,2.60573508 30.7211352,-0.4 34.4411766,-0.4 Z M35.199242,3.11008407 L33.6831111,3.11008407 C33.6510246,3.11008407 33.6282718,3.13275755 33.6282718,3.16333855 L33.6282718,5.50226049 L31.2825704,5.50226049 C31.2504839,5.50226049 31.2277311,5.52493397 31.2277311,5.55551497 L31.2277311,7.09154403 C31.2277311,7.12212503 31.2504839,7.14479851 31.2825704,7.14479851 L33.6282718,7.14479851 L33.6282718,9.48372045 C33.6282718,9.51430145 33.6510246,9.53697493 33.6831111,9.53697493 L35.199242,9.53697493 C35.2313286,9.53697493 35.2540813,9.51430145 35.2540813,9.48372045 L35.2540813,7.14479851 L37.5997827,7.14479851 C37.6318692,7.14479851 37.654622,7.12212503 37.654622,7.09154403 L37.654622,5.55551497 C37.654622,5.52493397 37.6318692,5.50226049 37.5997827,5.50226049 L35.2540813,5.50226049 L35.2540813,3.16333855 C35.2540813,3.13275755 35.2313286,3.11008407 35.199242,3.11008407 Z" id="Shape" stroke="#FFFFFF" stroke-width="0.8" fill="url(#linearGradient-4)" fill-rule="nonzero"></path>
            </g>
        </g>
    </g>
</svg>