<?xml version="1.0" encoding="UTF-8"?>
<svg width="12px" height="12px" viewBox="0 0 12 12" version="1.1" xmlns="http://www.w3.org/2000/svg" xmlns:xlink="http://www.w3.org/1999/xlink">
    <!-- Generator: Sketch 51.3 (57544) - http://www.bohemiancoding.com/sketch -->
    <title>zoom_out_map-24px</title>
    <desc>Created with Sketch.</desc>
    <defs></defs>
    <g id="Reportes" stroke="none" stroke-width="1" fill="none" fill-rule="evenodd">
        <g id="Reportería_R1_05" transform="translate(-634.000000, -277.000000)">
            <g id="Group-2" transform="translate(141.000000, 260.000000)">
                <g id="zoom_out_map-24px" transform="translate(492.000000, 15.000000)">
                    <polygon id="Path" points="0 0 15 0 15 15 0 15"></polygon>
                    <path d="M12.2079365,5.52222222 L11.2873016,4.6015873 L12.6714286,3.23015873 C12.9190476,2.98253968 12.9190476,2.57619048 12.6714286,2.32857143 C12.4238095,2.08095238 12.0174603,2.08095238 11.7698413,2.32857143 L10.3984127,3.71269841 L9.47777778,2.79206349 C9.28095238,2.5952381 8.93809524,2.73492063 8.93809524,3.02063492 L8.93809524,5.74444444 C8.93809524,5.92222222 9.07777778,6.06190476 9.25555556,6.06190476 L11.9793651,6.06190476 C12.2650794,6.06190476 12.4047619,5.71904762 12.2079365,5.52222222 Z M4.80793651,2.79206349 L3.88730159,3.71269841 L2.51587302,2.32857143 C2.26825397,2.08095238 1.86190476,2.08095238 1.61428571,2.32857143 C1.36666667,2.57619048 1.36666667,2.98253968 1.61428571,3.23015873 L2.9984127,4.6015873 L2.07777778,5.52222222 C1.88095238,5.71904762 2.02063492,6.06190476 2.30634921,6.06190476 L5.03015873,6.06190476 C5.20793651,6.06190476 5.34761905,5.92222222 5.34761905,5.74444444 L5.34761905,3.02063492 C5.34761905,2.73492063 5.0047619,2.5952381 4.80793651,2.79206349 Z M2.07777778,10.1920635 L2.9984127,11.1126984 L1.61428571,12.484127 C1.36666667,12.731746 1.36666667,13.1380952 1.61428571,13.3857143 C1.86190476,13.6333333 2.26825397,13.6333333 2.51587302,13.3857143 L3.88730159,12.0015873 L4.80793651,12.9222222 C5.0047619,13.1190476 5.34761905,12.9793651 5.34761905,12.6936508 L5.34761905,9.96984127 C5.34761905,9.79206349 5.20793651,9.65238095 5.03015873,9.65238095 L2.30634921,9.65238095 C2.02063492,9.65238095 1.88095238,9.9952381 2.07777778,10.1920635 Z M10.3984127,12.0015873 L11.7698413,13.3857143 C12.0174603,13.6333333 12.4238095,13.6333333 12.6714286,13.3857143 C12.9190476,13.1380952 12.9190476,12.731746 12.6714286,12.484127 L11.2873016,11.1126984 L12.2079365,10.1920635 C12.4047619,9.9952381 12.2650794,9.65238095 11.9793651,9.65238095 L9.25555556,9.65238095 C9.07777778,9.65238095 8.93809524,9.79206349 8.93809524,9.96984127 L8.93809524,12.6936508 C8.93809524,12.9793651 9.28095238,13.1190476 9.47777778,12.9222222 L10.3984127,12.0015873 Z" id="Shape" fill="#FFFFFF" fill-rule="nonzero"></path>
                </g>
            </g>
        </g>
    </g>
</svg>