
<svg width="35px" height="35px" viewBox="0 0 35 35" version="1.1" xmlns="http://www.w3.org/2000/svg" xmlns:xlink="http://www.w3.org/1999/xlink">
    <!-- Generator: Sketch 51.3 (57544) - http://www.bohemiancoding.com/sketch -->
    <desc>Created with Sketch.</desc>
    <defs></defs>
    <g id="Symbols" stroke="none" stroke-width="1" fill="none" fill-rule="evenodd">
        <g id="Info-Perfil">
            <circle id="Oval" fill="#FFFFFF" opacity="0.5" cx="17.4611111" cy="17.4611111" r="17.4611111"></circle>
            <g id="person-24px" transform="translate(3.888889, 3.111111)">
                <polygon id="Path" points="0 0 27.2222222 0 27.2222222 27.2222222 0 27.2222222"></polygon>
                <path d="M13.6111111,13.6111111 C16.1178241,13.6111111 18.1481481,11.580787 18.1481481,9.07407407 C18.1481481,6.56736111 16.1178241,4.53703704 13.6111111,4.53703704 C11.1043981,4.53703704 9.07407407,6.56736111 9.07407407,9.07407407 C9.07407407,11.580787 11.1043981,13.6111111 13.6111111,13.6111111 Z M13.6111111,15.8796296 C10.5826389,15.8796296 4.53703704,17.399537 4.53703704,20.4166667 L4.53703704,21.5509259 C4.53703704,22.1747685 5.0474537,22.6851852 5.6712963,22.6851852 L21.5509259,22.6851852 C22.1747685,22.6851852 22.6851852,22.1747685 22.6851852,21.5509259 L22.6851852,20.4166667 C22.6851852,17.399537 16.6395833,15.8796296 13.6111111,15.8796296 Z" id="Shape" fill="#FFFFFF" fill-rule="nonzero"></path>
            </g>
        </g>
    </g>
</svg>
