<?xml version="1.0" encoding="UTF-8"?>
<svg width="26px" height="26px" viewBox="0 0 26 26" version="1.1" xmlns="http://www.w3.org/2000/svg" xmlns:xlink="http://www.w3.org/1999/xlink">
    <!-- Generator: Sketch 51.3 (57544) - http://www.bohemiancoding.com/sketch -->
    <title>healing-24px</title>
    <desc>Created with Sketch.</desc>
    <defs>
        <linearGradient x1="50%" y1="0%" x2="50%" y2="100%" id="linearGradient-1">
            <stop stop-color="#F76B1C" offset="0%"></stop>
            <stop stop-color="#000000" offset="100%"></stop>
        </linearGradient>
    </defs>
    <g id="Reportes" stroke="none" stroke-width="1" fill="none" fill-rule="evenodd">
        <g id="Reportería_R1_04_1" transform="translate(-1118.000000, -266.000000)">
            <g id="Group-23" transform="translate(804.000000, 261.000000)">
                <g id="healing-24px" transform="translate(312.000000, 3.000000)">
                    <polygon id="Path" points="0 0 30 0 30 30 0 30"></polygon>
                    <path d="M22.1625,15.025 L27.1375,10.05 C27.625,9.5625 27.625,8.775 27.1375,8.2875 L21.7125,2.8625 C21.225,2.375 20.4375,2.375 19.95,2.8625 L14.975,7.8375 L10,2.8625 C9.75,2.625 9.4375,2.5 9.1125,2.5 C8.8,2.5 8.475,2.625 8.2375,2.8625 L2.8125,8.2875 C2.325,8.775 2.325,9.5625 2.8125,10.05 L7.7875,15.025 L2.8125,20 C2.325,20.4875 2.325,21.275 2.8125,21.7625 L8.2375,27.1875 C8.725,27.675 9.5125,27.675 10,27.1875 L14.975,22.2125 L19.95,27.1875 C20.2,27.4375 20.5125,27.55 20.8375,27.55 C21.1625,27.55 21.475,27.425 21.725,27.1875 L27.15,21.7625 C27.6375,21.275 27.6375,20.4875 27.15,20 L22.1625,15.025 Z M15,11.25 C15.6875,11.25 16.25,11.8125 16.25,12.5 C16.25,13.1875 15.6875,13.75 15,13.75 C14.3125,13.75 13.75,13.1875 13.75,12.5 C13.75,11.8125 14.3125,11.25 15,11.25 Z M9.1125,13.7 L4.575,9.175 L9.1125,4.6375 L13.6375,9.1625 L9.1125,13.7 Z M12.5,16.25 C11.8125,16.25 11.25,15.6875 11.25,15 C11.25,14.3125 11.8125,13.75 12.5,13.75 C13.1875,13.75 13.75,14.3125 13.75,15 C13.75,15.6875 13.1875,16.25 12.5,16.25 Z M15,18.75 C14.3125,18.75 13.75,18.1875 13.75,17.5 C13.75,16.8125 14.3125,16.25 15,16.25 C15.6875,16.25 16.25,16.8125 16.25,17.5 C16.25,18.1875 15.6875,18.75 15,18.75 Z M17.5,13.75 C18.1875,13.75 18.75,14.3125 18.75,15 C18.75,15.6875 18.1875,16.25 17.5,16.25 C16.8125,16.25 16.25,15.6875 16.25,15 C16.25,14.3125 16.8125,13.75 17.5,13.75 Z M20.825,25.425 L16.2875,20.9 L20.825,16.3625 L25.35,20.8875 L20.825,25.425 Z" id="Shape" fill="url(#linearGradient-1)" fill-rule="nonzero"></path>
                </g>
            </g>
        </g>
    </g>
</svg>