<?xml version="1.0" encoding="UTF-8"?>
<svg width="37px" height="25px" viewBox="0 0 37 25" version="1.1" xmlns="http://www.w3.org/2000/svg" xmlns:xlink="http://www.w3.org/1999/xlink">
    <!-- Generator: Sketch 51.3 (57544) - http://www.bohemiancoding.com/sketch -->
    <title>Group 10</title>
    <desc>Created with Sketch.</desc>
    <defs></defs>
    <g id="Reportes" stroke="none" stroke-width="1" fill="none" fill-rule="evenodd">
        <g id="Reportería_R1_04_1" transform="translate(-584.000000, -271.000000)">
            <g id="Group-38" transform="translate(568.000000, 262.000000)">
                <g id="Group-16" transform="translate(10.000000, 5.000000)">
                    <g id="Group-10">
                        <g id="ICON_Inicio">
                            <polygon id="Path" points="0 0 34.4055318 0 34.4055318 34.469697 0 34.469697"></polygon>
                            <path d="M16.0438496,26.7913676 L16.0438496,19.7358089 L21.483416,19.7358089 L21.483416,26.7913676 C21.483416,27.5674791 22.0953672,28.2024793 22.8433076,28.2024793 L26.9229824,28.2024793 C27.6709227,28.2024793 28.282874,27.5674791 28.282874,26.7913676 L28.282874,16.9135854 L30.5946897,16.9135854 C31.2202398,16.9135854 31.519416,16.1092517 31.0434539,15.6859182 L19.6747602,5.06024672 C19.1580014,4.58046872 18.3692642,4.58046872 17.8525054,5.06024672 L6.48381172,15.6859182 C6.02144858,16.1092517 6.30702581,16.9135854 6.93257595,16.9135854 L9.24439166,16.9135854 L9.24439166,26.7913676 C9.24439166,27.5674791 9.85634287,28.2024793 10.6042832,28.2024793 L14.683958,28.2024793 C15.4318984,28.2024793 16.0438496,27.5674791 16.0438496,26.7913676 Z" id="Path" fill="#48566A" fill-rule="nonzero"></path>
                        </g>
                        <g id="group-24px" transform="translate(22.661205, 11.280992)">
                            <polygon id="Path" points="0 0 20.0101815 0 20.0101815 20.0474998 0 20.0474998"></polygon>
                            <path d="M14.1330652,9.9135988 C15.5267814,9.9135988 16.6434334,8.73277903 16.6434334,7.26997245 C16.6434334,5.80716587 15.5267814,4.62634611 14.1330652,4.62634611 C12.7393491,4.62634611 11.6143011,5.80716587 11.6143011,7.26997245 C11.6143011,8.73277903 12.7393491,9.9135988 14.1330652,9.9135988 Z M7.41636096,9.9135988 C8.81007709,9.9135988 9.92672918,8.73277903 9.92672918,7.26997245 C9.92672918,5.80716587 8.81007709,4.62634611 7.41636096,4.62634611 C6.02264482,4.62634611 4.89759686,5.80716587 4.89759686,7.26997245 C4.89759686,8.73277903 6.02264482,9.9135988 7.41636096,9.9135988 Z M7.41636096,11.6760164 C5.46012084,11.6760164 1.53924473,12.7070306 1.53924473,14.7602471 L1.53924473,16.9632691 L13.2934772,16.9632691 L13.2934772,14.7602471 C13.2934772,12.7070306 9.37260108,11.6760164 7.41636096,11.6760164 Z M14.1330652,11.6760164 C13.8895847,11.6760164 13.6125206,11.6936405 13.3186648,11.7200768 C14.292587,12.4602922 14.9726533,13.4560581 14.9726533,14.7602471 L14.9726533,16.9632691 L20.0101815,16.9632691 L20.0101815,14.7602471 C20.0101815,12.7070306 16.0893053,11.6760164 14.1330652,11.6760164 Z" id="Shape" stroke="#E7E8ED" stroke-width="0.5" fill="#48566A" fill-rule="nonzero"></path>
                        </g>
                    </g>
                </g>
            </g>
        </g>
    </g>
</svg>