<?xml version="1.0" encoding="UTF-8"?>
<svg width="28px" height="28px" viewBox="0 0 28 28" version="1.1" xmlns="http://www.w3.org/2000/svg" xmlns:xlink="http://www.w3.org/1999/xlink">
    <!-- Generator: Sketch 51.3 (57544) - http://www.bohemiancoding.com/sketch -->
    <title>Group 10</title>
    <desc>Created with Sketch.</desc>
    <defs>
        <linearGradient x1="50%" y1="0%" x2="50%" y2="100%" id="linearGradient-1">
            <stop stop-color="#F76B1C" offset="0%"></stop>
            <stop stop-color="#000000" offset="100%"></stop>
        </linearGradient>
    </defs>
    <g id="Reportes" stroke="none" stroke-width="1" fill="none" fill-rule="evenodd">
        <g id="Reportería_R1_04_1" transform="translate(-836.000000, -264.000000)">
            <g id="Group-23" transform="translate(804.000000, 261.000000)">
                <g id="Group-10" transform="translate(28.000000, 0.000000)">
                    <g id="ICON_Inicio">
                        <polygon id="Path" points="0 0 34 0 34 34 0 34"></polygon>
                        <path d="M14.6729255,26.7899348 L14.6729255,19.8305177 L20.0483767,19.8305177 L20.0483767,26.7899348 C20.0483767,27.5554706 20.6531149,28.1818182 21.3922395,28.1818182 L25.4238279,28.1818182 C26.1629524,28.1818182 26.7676907,27.5554706 26.7676907,26.7899348 L26.7676907,17.0467509 L29.0522574,17.0467509 C29.6704343,17.0467509 29.9660841,16.2533774 29.4957321,15.8358123 L18.2610392,5.35493027 C17.7503713,4.88168991 16.9709309,4.88168991 16.460263,5.35493027 L5.22557002,15.8358123 C4.76865667,16.2533774 5.05086786,17.0467509 5.66904475,17.0467509 L7.9536115,17.0467509 L7.9536115,26.7899348 C7.9536115,27.5554706 8.55834976,28.1818182 9.2974743,28.1818182 L13.3290627,28.1818182 C14.0681872,28.1818182 14.6729255,27.5554706 14.6729255,26.7899348 Z" id="Path" fill="url(#linearGradient-1)" fill-rule="nonzero"></path>
                    </g>
                    <path d="M5.85996363,4 L30.5555367,27.5714286" id="Path-4" stroke="#FFFFFF" stroke-width="2.5"></path>
                    <path d="M4.85996363,6 L29.5555367,29.5714286" id="Path-4" stroke="url(#linearGradient-1)" stroke-width="2.5"></path>
                </g>
            </g>
        </g>
    </g>
</svg>