<?xml version="1.0" encoding="UTF-8"?>
<svg width="33px" height="29px" viewBox="0 0 33 29" version="1.1" xmlns="http://www.w3.org/2000/svg" xmlns:xlink="http://www.w3.org/1999/xlink">
    <!-- Generator: Sketch 51.3 (57544) - http://www.bohemiancoding.com/sketch -->
    <title>Group 9</title>
    <desc>Created with Sketch.</desc>
    <defs></defs>
    <g id="Reportes" stroke="none" stroke-width="1" fill="none" fill-rule="evenodd">
        <g id="Reportería_R1_04_1" transform="translate(-584.000000, -524.000000)">
            <g id="Group-9" transform="translate(581.000000, 520.000000)">
                <g id="business_center-24px">
                    <polygon id="Path" points="0 0 33.75 0 33.75 33.75 0 33.75"></polygon>
                    <path d="M18.84375,23.1875 L16.03125,23.1875 C15.2578125,23.1875 14.625,22.540625 14.625,21.75 L4.7953125,21.75 L4.7953125,27.5 C4.7953125,29.08125 6.0609375,30.375 7.6078125,30.375 L27.28125,30.375 C28.828125,30.375 30.09375,29.08125 30.09375,27.5 L30.09375,21.75 L20.25,21.75 C20.25,22.540625 19.6171875,23.1875 18.84375,23.1875 Z M28.6875,10.25 L23.0625,10.25 C23.0625,7.073125 20.5453125,4.5 17.4375,4.5 C14.3296875,4.5 11.8125,7.073125 11.8125,10.25 L6.1875,10.25 C4.640625,10.25 3.375,11.54375 3.375,13.125 L3.375,17.4375 C3.375,19.033125 4.6265625,20.3125 6.1875,20.3125 L14.625,20.3125 L14.625,18.875 C14.625,18.084375 15.2578125,17.4375 16.03125,17.4375 L18.84375,17.4375 C19.6171875,17.4375 20.25,18.084375 20.25,18.875 L20.25,20.3125 L28.6875,20.3125 C30.234375,20.3125 31.5,19.01875 31.5,17.4375 L31.5,13.125 C31.5,11.54375 30.234375,10.25 28.6875,10.25 Z M14.625,10.25 C14.625,8.66875 15.890625,7.375 17.4375,7.375 C18.984375,7.375 20.25,8.66875 20.25,10.25 L14.6109375,10.25 L14.625,10.25 Z" id="Shape" fill="#FFFFFF" fill-rule="nonzero"></path>
                </g>
                <circle id="Oval" stroke="#001C37" fill="#FFFFFF" cx="29.25" cy="25.875" r="6.25"></circle>
                <g id="close-24px" transform="translate(24.750000, 21.375000)">
                    <polygon id="Path" stroke="#001C37" fill="#151A4F" fill-rule="nonzero" points="7.125 2.40375 6.59625 1.875 4.5 3.97125 2.40375 1.875 1.875 2.40375 3.97125 4.5 1.875 6.59625 2.40375 7.125 4.5 5.02875 6.59625 7.125 7.125 6.59625 5.02875 4.5"></polygon>
                    <polygon id="Path" points="0 0 9 0 9 9 0 9"></polygon>
                </g>
            </g>
        </g>
    </g>
</svg>