<?xml version="1.0" encoding="UTF-8"?>
<svg width="37px" height="28px" viewBox="0 0 37 28" version="1.1" xmlns="http://www.w3.org/2000/svg" xmlns:xlink="http://www.w3.org/1999/xlink">
    <!-- Generator: Sketch 51.3 (57544) - http://www.bohemiancoding.com/sketch -->
    <title>Group 31</title>
    <desc>Created with Sketch.</desc>
    <defs>
        <linearGradient x1="50%" y1="0%" x2="50%" y2="100%" id="linearGradient-1">
            <stop stop-color="#279DFA" offset="0%"></stop>
            <stop stop-color="#0083E9" offset="100%"></stop>
        </linearGradient>
    </defs>
    <g id="Reportes" stroke="none" stroke-width="1" fill="none" fill-rule="evenodd">
        <g id="Reportería_R1_04_1" transform="translate(-832.000000, -347.000000)">
            <g id="Group-31" transform="translate(825.000000, 342.000000)">
                <g id="ICON_Inicio">
                    <polygon id="Path" points="0 0 38.3375926 0 38.3375926 39.3939394 0 39.3939394"></polygon>
                    <path d="M17.8774324,30.6187058 L17.8774324,22.5552101 L23.9386635,22.5552101 L23.9386635,30.6187058 C23.9386635,31.5056903 24.620552,32.231405 25.4539713,32.231405 L29.9998946,32.231405 C30.8333139,32.231405 31.5152024,31.5056903 31.5152024,30.6187058 L31.5152024,19.3298119 L34.0912256,19.3298119 C34.7882672,19.3298119 35.1216349,18.4105734 34.5912772,17.9267636 L21.9233042,5.78313911 C21.3474872,5.2348214 20.4686087,5.2348214 19.8927918,5.78313911 L7.22481877,17.9267636 C6.70961413,18.4105734 7.02782876,19.3298119 7.72487034,19.3298119 L10.3008936,19.3298119 L10.3008936,30.6187058 C10.3008936,31.5056903 10.9827821,32.231405 11.8162013,32.231405 L16.3621247,32.231405 C17.1955439,32.231405 17.8774324,31.5056903 17.8774324,30.6187058 Z" id="Path" fill="url(#linearGradient-1)" fill-rule="nonzero"></path>
                </g>
                <circle id="Oval" fill="#FFFFFF" cx="35.5" cy="24.5" r="8.5"></circle>
                <g id="noun_No-Water_1378030" transform="translate(28.000000, 17.000000)" fill="url(#linearGradient-1)" fill-rule="nonzero">
                    <g id="Group">
                        <path d="M7.5,0.078125 C3.40625,0.078125 0.078125,3.40625 0.078125,7.5 C0.078125,11.59375 3.40625,14.921875 7.5,14.921875 C11.59375,14.921875 14.921875,11.59375 14.921875,7.5 C14.921875,3.40625 11.59375,0.078125 7.5,0.078125 Z M12.21875,11.21875 L10.671875,9.671875 C10.484375,10.15625 10.203125,10.546875 9.859375,10.859375 L11.21875,12.21875 C10.1875,13.03125 8.90625,13.515625 7.5,13.515625 C4.1875,13.515625 1.484375,10.8125 1.484375,7.5 C1.484375,6.09375 1.96875,4.8125 2.78125,3.78125 L4.921875,5.921875 C5.03125,5.75 5.140625,5.59375 5.265625,5.421875 C5.4375,5.1875 5.59375,4.96875 5.765625,4.765625 L3.78125,2.78125 C4.8125,1.96875 6.09375,1.484375 7.5,1.484375 C10.8125,1.484375 13.515625,4.1875 13.515625,7.5 C13.515625,8.90625 13.03125,10.1875 12.21875,11.21875 Z" id="Shape"></path>
                        <path d="M7.734375,3.921875 C7.59375,3.796875 7.390625,3.796875 7.265625,3.921875 C6.578125,4.578125 4.609375,6.609375 4.609375,8.3125 C4.609375,10.390625 6.109375,11.1875 7.5,11.1875 C8.890625,11.1875 10.390625,10.390625 10.390625,8.3125 C10.390625,6.59375 8.421875,4.578125 7.734375,3.921875 Z M7.5625,10.296875 C6.546875,10.296875 5.515625,9.5625 5.515625,8.140625 C5.515625,7.9375 5.671875,7.78125 5.875,7.78125 C6.078125,7.78125 6.234375,7.9375 6.234375,8.140625 C6.234375,9.125 6.921875,9.5625 7.546875,9.5625 C7.75,9.5625 7.90625,9.71875 7.90625,9.921875 C7.921875,10.140625 7.75,10.296875 7.5625,10.296875 Z" id="Shape"></path>
                    </g>
                </g>
            </g>
        </g>
    </g>
</svg>