<?xml version="1.0" encoding="UTF-8"?>
<svg width="40px" height="25px" viewBox="0 0 40 25" version="1.1" xmlns="http://www.w3.org/2000/svg" xmlns:xlink="http://www.w3.org/1999/xlink">
    <!-- Generator: Sketch 51.3 (57544) - http://www.bohemiancoding.com/sketch -->
    <desc>Created with Sketch.</desc>
    <defs>
        <linearGradient x1="50%" y1="0%" x2="50%" y2="100%" id="linearGradient-1">
            <stop stop-color="#F76B1C" offset="0%"></stop>
            <stop stop-color="#000000" offset="100%"></stop>
        </linearGradient>
    </defs>
    <g id="Reportes" stroke="none" stroke-width="1" fill="none" fill-rule="evenodd">
        <g id="Reportería_R1_04_1" transform="translate(-179.000000, -405.000000)">
            <g id="group-24px" transform="translate(178.000000, 398.000000)">
                <polygon id="Path" points="0 0 41.7500005 0 41.7500005 38.538462 0 38.538462"></polygon>
                <path d="M27.9138433,17.9198451 C30.8349632,17.9198451 33.1753785,15.6053783 33.1753785,12.7382031 C33.1753785,9.87102791 30.8349632,7.55656118 27.9138433,7.55656118 C24.9927234,7.55656118 22.634711,9.87102791 22.634711,12.7382031 C22.634711,15.6053783 24.9927234,17.9198451 27.9138433,17.9198451 Z M13.8361572,17.9198451 C16.7572771,17.9198451 19.0976924,15.6053783 19.0976924,12.7382031 C19.0976924,9.87102791 16.7572771,7.55656118 13.8361572,7.55656118 C10.9150373,7.55656118 8.5570249,9.87102791 8.5570249,12.7382031 C8.5570249,15.6053783 10.9150373,17.9198451 13.8361572,17.9198451 Z M13.8361572,21.374273 C9.73603111,21.374273 1.51818184,23.3951134 1.51818184,27.419522 L1.51818184,31.7375569 L26.1541325,31.7375569 L26.1541325,27.419522 C26.1541325,23.3951134 17.9362833,21.374273 13.8361572,21.374273 Z M27.9138433,21.374273 C27.4035272,21.374273 26.8228226,21.4088173 26.2069239,21.4606337 C28.2481884,22.9114935 29.6735541,24.8632453 29.6735541,27.419522 L29.6735541,31.7375569 L40.2318187,31.7375569 L40.2318187,27.419522 C40.2318187,23.3951134 32.0139694,21.374273 27.9138433,21.374273 Z" id="Shape" fill="url(#linearGradient-1)" fill-rule="nonzero"></path>
            </g>
        </g>
    </g>
</svg>