<?xml version="1.0" encoding="UTF-8"?>
<svg width="49px" height="35px" viewBox="0 0 49 35" version="1.1" xmlns="http://www.w3.org/2000/svg" xmlns:xlink="http://www.w3.org/1999/xlink">
    <!-- Generator: Sketch 51.3 (57544) - http://www.bohemiancoding.com/sketch -->
    <title>Group 39</title>
    <desc>Created with Sketch.</desc>
    <defs>
        <linearGradient x1="50%" y1="0%" x2="50%" y2="100%" id="linearGradient-1">
            <stop stop-color="#F76B1C" offset="0%"></stop>
            <stop stop-color="#000000" offset="100%"></stop>
        </linearGradient>
    </defs>
    <g id="Reportes" stroke="none" stroke-width="1" fill="none" fill-rule="evenodd">
        <g id="Reportería_R1_04_1" transform="translate(-173.000000, -332.000000)">
            <g id="Group-39" transform="translate(173.000000, 332.000000)">
                <g id="noun_Destroyed_2103911" transform="translate(0.000000, 0.000000)" fill="url(#linearGradient-1)" fill-rule="nonzero">
                    <path d="M42.7238822,32.2669621 C37.4062948,31.5676431 31.5289614,31.1480517 25.2784639,31.0548092 L27.6107391,27.7913207 C27.6573846,27.6980782 27.6573846,27.6048356 27.6107391,27.5115931 L24.0656808,20.2386759 C24.0190353,20.1454334 24.0190353,20.0521909 24.0656808,19.9589483 L27.2375751,15.1103369 C27.2842206,15.0170943 27.2842206,14.9238518 27.2375751,14.8306093 L24.3455539,10.1218616 C24.2056173,9.8887553 23.8324533,9.98199782 23.8324533,10.3083467 L24.2989084,14.597503 C24.2989084,14.6907455 24.2989084,14.783988 24.2056173,14.8306093 L19.3078395,19.3994932 C19.2145485,19.4927357 19.2145485,19.5859782 19.261194,19.6792208 L21.9666332,25.5535 C22.0132787,25.6467426 22.0132787,25.7399851 21.9199877,25.8332276 L17.0222098,31.1014304 C11.5180404,31.2412942 6.29374402,31.6608856 1.58254817,32.2669621 C0.183183071,32.4534471 -0.563144984,30.6818391 0.509701595,29.7960351 C2.28223073,28.3507759 5.17425194,27.138623 8.7193102,26.252819 L11.5180404,9.8887553 L9.60557477,9.56240645 C9.04582873,9.46916392 8.62601919,8.90970875 8.7193102,8.35025358 L8.95253772,7.09147945 C8.99918322,6.71850934 9.27905624,6.39216049 9.65222027,6.2522967 L16.2758818,3.87461223 L16.8356278,0.704366275 C16.9289188,0.238153634 17.3487283,-0.0415739505 17.8151834,0.00504731361 L20.007522,0.378017426 C20.4739771,0.471259954 20.7538501,0.890851331 20.7072046,1.35706397 L20.5206226,2.38273178 L26.4446015,0.284774898 C26.8177655,0.144911106 27.1909296,0.238153634 27.4708026,0.471259954 L41.1379351,11.6603633 C41.4178081,11.8934697 41.5577446,12.2664398 41.5110991,12.6394099 L41.2778716,13.898184 C41.1845806,14.4576392 40.6248346,14.8772306 40.0650885,14.783988 L38.1526229,14.4576392 L36.1002207,26.3926828 C39.4120515,27.2784868 42.1174907,28.4440184 43.8433743,29.8426563 C44.8695754,30.6818391 44.1232473,32.4534471 42.7238822,32.2669621 Z" id="Path"></path>
                </g>
                <g id="Group-34" transform="translate(28.000000, 16.000000)">
                    <circle id="Oval" fill="#FFFFFF" cx="11.5" cy="9.5" r="9.5"></circle>
                    <circle id="Oval" fill="url(#linearGradient-1)" cx="11.5" cy="9.5" r="8.5"></circle>
                    <text id="RSH" font-family="Helvetica" font-size="8" font-weight="normal" fill="#FFFFFF">
                        <tspan x="3.0546875" y="13">RSH</tspan>
                    </text>
                </g>
            </g>
        </g>
    </g>
</svg>